<svg width="30" height="50" viewBox="0 0 62 80" fill="none" xmlns="http://www.w3.org/2000/svg">
<path d="M37.3635 26.9937L60.1972 4.59171H1.22359L24.0573 26.9937C27.7521 30.6186 33.6687 30.6186 37.3635 26.9937Z" fill="#FFFAFA" stroke="black"/>
<path d="M52.7767 74.6424C52.7767 74.8434 52.6897 75.0806 52.4409 75.3581C52.1894 75.6386 51.7953 75.9332 51.2464 76.2294C50.1492 76.8215 48.5285 77.3704 46.4833 77.8372C42.4009 78.7691 36.7364 79.35 30.4624 79.35C24.1884 79.35 18.5239 78.7691 14.4416 77.8372C12.3964 77.3704 10.7757 76.8215 9.67847 76.2294C9.12954 75.9332 8.73541 75.6386 8.48395 75.3581C8.23518 75.0806 8.14815 74.8434 8.14815 74.6424C8.14815 74.4414 8.23518 74.2041 8.48395 73.9266C8.73541 73.6461 9.12954 73.3516 9.67847 73.0554C10.7757 72.4632 12.3964 71.9143 14.4416 71.4475C18.5239 70.5157 24.1884 69.9348 30.4624 69.9348C36.7364 69.9348 42.4009 70.5157 46.4833 71.4475C48.5285 71.9143 50.1492 72.4632 51.2464 73.0554C51.7953 73.3516 52.1894 73.6461 52.4409 73.9266C52.6897 74.2041 52.7767 74.4414 52.7767 74.6424Z" fill="#FFFAFA" stroke="black"/>
<line x1="31.9624" y1="31.7416" x2="31.9624" y2="74.3944" stroke="#C4C4C4" stroke-width="3"/>
<path d="M37.2356 24.887L52.0197 10.9152H9.40113L24.1853 24.887C27.8471 28.3477 33.5737 28.3477 37.2356 24.887Z" fill="#98275D" stroke="black"/>
<path d="M60.7121 3.9677C60.7121 3.96969 60.712 3.97636 60.7065 3.99033C60.7007 4.0054 60.6879 4.03067 60.6605 4.06569C60.6035 4.13867 60.499 4.23424 60.3242 4.34537C59.9734 4.56837 59.4235 4.80188 58.6682 5.0342C57.1646 5.4966 54.9637 5.91977 52.2139 6.27747C46.7215 6.99192 39.1186 7.4354 30.7104 7.4354C22.3022 7.4354 14.6993 6.99192 9.20695 6.27747C6.45716 5.91977 4.25619 5.4966 2.75266 5.0342C1.99728 4.80188 1.44742 4.56837 1.09663 4.34537C0.921812 4.23424 0.817282 4.13867 0.760302 4.06569C0.732966 4.03067 0.720145 4.0054 0.714276 3.99033C0.708829 3.97636 0.70871 3.96969 0.70871 3.9677C0.70871 3.96571 0.708829 3.95905 0.714276 3.94507C0.720145 3.93001 0.732966 3.90473 0.760302 3.86972C0.817282 3.79673 0.921812 3.70116 1.09663 3.59003C1.44742 3.36703 1.99728 3.13352 2.75266 2.9012C4.25619 2.4388 6.45716 2.01563 9.20695 1.65794C14.6993 0.943479 22.3022 0.5 30.7104 0.5C39.1186 0.5 46.7215 0.943479 52.2139 1.65794C54.9637 2.01563 57.1646 2.4388 58.6682 2.9012C59.4235 3.13352 59.9734 3.36703 60.3242 3.59003C60.499 3.70116 60.6035 3.79673 60.6605 3.86972C60.6879 3.90473 60.7007 3.93001 60.7065 3.94507C60.712 3.95905 60.7121 3.96571 60.7121 3.9677Z" fill="#FFFAFA" stroke="black"/>
</svg>
