<svg width="450" height="90" viewBox="0 0 530 114" fill="none" xmlns="http://www.w3.org/2000/svg">
<g filter="url(#filter0_d)">
<path d="M285.482 75.0208H268.189C266.718 75.0192 265.308 74.4343 264.268 73.3943C263.228 72.3544 262.644 70.9444 262.642 69.4737V20.1767C262.642 19.8646 262.518 19.5653 262.297 19.3446C262.077 19.124 261.777 19 261.465 19H221.177C221.022 18.9999 220.869 19.0303 220.726 19.0894C220.583 19.1485 220.454 19.2352 220.344 19.3444C220.235 19.4537 220.148 19.5835 220.089 19.7263C220.03 19.8691 220 20.0221 220 20.1767V29.4776C220.002 41.1455 221.176 52.7836 223.503 64.2171L225.969 76.3198V103.887C225.969 104.042 225.999 104.195 226.058 104.338C226.117 104.48 226.204 104.61 226.313 104.719C226.422 104.829 226.552 104.915 226.695 104.974C226.838 105.033 226.991 105.064 227.145 105.064H235.727C235.925 105.064 236.12 105.014 236.293 104.919C236.466 104.824 236.613 104.687 236.719 104.52L237.817 102.799L238.915 104.52C239.021 104.687 239.168 104.824 239.341 104.919C239.515 105.014 239.709 105.064 239.907 105.064H273.015C273.212 105.064 273.407 105.014 273.58 104.919C273.754 104.824 273.9 104.687 274.006 104.52L275.104 102.799L276.202 104.52C276.309 104.687 276.455 104.824 276.628 104.919C276.802 105.014 276.996 105.064 277.194 105.064H282.94C283.138 105.064 283.332 105.014 283.506 104.919C283.679 104.824 283.826 104.686 283.932 104.52L285.029 102.799L286.128 104.52C286.234 104.687 286.381 104.824 286.554 104.919C286.727 105.014 286.922 105.064 287.12 105.064H295.568C295.723 105.064 295.876 105.033 296.018 104.974C296.161 104.915 296.291 104.829 296.4 104.719C296.51 104.61 296.596 104.48 296.655 104.338C296.714 104.195 296.745 104.042 296.745 103.887V86.2831C296.741 83.2972 295.554 80.4345 293.442 78.3232C291.331 76.2118 288.468 75.0242 285.482 75.0208V75.0208ZM294.391 86.2831V94.7287H228.322V90.7765H275.683C275.887 90.7764 276.087 90.7235 276.263 90.623C276.44 90.5224 276.588 90.3777 276.692 90.203L280.561 83.7341C280.67 83.5513 280.728 83.3421 280.727 83.1289V77.3741H285.484C287.845 77.3773 290.109 78.317 291.779 79.9871C293.449 81.6572 294.389 83.9214 294.391 86.2831V86.2831ZM222.353 21.3533H260.285V25.7291H222.353V21.3533ZM225.809 63.7471C223.513 52.4683 222.356 40.9876 222.353 29.4776V28.0824H260.285V69.4737C260.288 71.5689 261.121 73.5776 262.603 75.0588C264.085 76.54 266.094 77.3727 268.189 77.3741H278.373V82.8082L275.016 88.4252H228.322V76.1975C228.322 76.1186 228.314 76.04 228.298 75.9628L225.809 63.7471ZM294.391 102.71H287.764L286.021 99.9779C285.915 99.8114 285.768 99.6743 285.595 99.5793C285.421 99.4843 285.227 99.4345 285.029 99.4345C284.831 99.4345 284.637 99.4843 284.463 99.5793C284.29 99.6743 284.143 99.8114 284.037 99.9779L282.295 102.71H277.84L276.096 99.9779C275.99 99.8114 275.843 99.6743 275.67 99.5793C275.496 99.4843 275.302 99.4345 275.104 99.4345C274.906 99.4345 274.712 99.4843 274.538 99.5793C274.365 99.6743 274.218 99.8114 274.112 99.9779L272.369 102.71H240.554L238.806 99.9779C238.7 99.8114 238.553 99.6743 238.38 99.5793C238.206 99.4843 238.012 99.4345 237.814 99.4345C237.617 99.4345 237.422 99.4843 237.249 99.5793C237.075 99.6743 236.929 99.8114 236.822 99.9779L235.082 102.71H228.322V97.082H294.391L294.391 102.71Z" fill="black" fill-opacity="0.58"/>
</g>
<path d="M144.81 33.8457H145.396C147.023 33.8457 150.018 34.0573 154.38 34.4805L159.8 34.627H159.946C162.42 34.627 164.227 34.513 165.366 34.2852C165.757 35.75 165.952 37.5078 165.952 39.5586V39.8027C165.952 40.6816 165.757 41.1211 165.366 41.1211L165.171 41.3164C165.171 41.4466 165.366 41.5931 165.757 41.7559H165.854V41.9512C165.659 42.2441 165.09 42.4232 164.146 42.4883C163.364 42.4883 162.974 42.2279 162.974 41.707L162.925 40.5352L162.974 38.2891C162.974 37.9961 162.013 37.8496 160.093 37.8496H157.163L155.503 37.8008C155.21 37.8008 154.982 40.4701 154.819 45.8086C154.624 50.2031 154.526 53.1816 154.526 54.7441V56.209C154.526 56.6322 154.38 57.0716 154.087 57.5273V57.5762C154.347 57.5762 154.494 57.918 154.526 58.6016L154.38 59.334H154.282V59.2852V58.9922L154.185 62.8008C154.185 63.1914 155.796 63.5332 159.019 63.8262C159.637 64.054 159.946 64.3633 159.946 64.7539C159.686 65.3398 159.556 66.0723 159.556 66.9512C159.458 66.9512 159.409 67.1139 159.409 67.4395L159.214 67.6348C155.731 67.4395 152.524 67.3418 149.595 67.3418H148.472C146.974 67.3418 145.819 67.4069 145.005 67.5371C144.94 67.4069 144.81 66.3327 144.614 64.3145H144.663L145.347 64.6074H145.396L145.591 64.4609V64.4121C145.526 64.2493 145.363 64.168 145.103 64.168L144.956 64.0215V63.9238C144.956 63.8262 145.672 63.6471 147.104 63.3867C147.104 63.2891 148.244 63.224 150.522 63.1914C150.783 63.1914 150.962 62.1335 151.06 60.0176L151.304 56.8926C151.011 54.1908 150.864 52.5143 150.864 51.8633L150.327 42.1953V40.9258L150.425 39.1191L150.327 38.4844L150.522 38.0938V37.8496C150.522 37.5566 149.237 37.3939 146.665 37.3613C144.81 37.459 143.882 37.5892 143.882 37.752C143.589 38.5007 143.296 39.6237 143.003 41.1211L142.661 41.4141L142.563 41.3652H142.222C142.091 41.4954 141.945 41.5605 141.782 41.5605L140.415 41.6582C140.415 41.0397 140.415 40.4049 140.415 39.7539C140.448 39.0703 140.464 38.5495 140.464 38.1914C140.496 37.8333 140.513 37.5729 140.513 37.4102L140.269 35.5547C140.269 35.1641 140.513 34.9362 141.001 34.8711L141.587 34.2852H141.831L142.271 34.8711H142.368C142.922 34.1875 143.735 33.8457 144.81 33.8457ZM155.747 35.7012L155.601 35.8477C155.601 36.0104 156.121 36.1243 157.163 36.1895C157.716 36.1243 157.993 36.0592 157.993 35.9941V35.8965C157.603 35.7663 156.903 35.7012 155.894 35.7012H155.747ZM162.144 37.0684H161.655V37.1172C161.72 37.2799 161.851 37.3613 162.046 37.3613H162.339V37.2637L162.144 37.0684ZM163.364 37.0684H163.12V37.2637H163.267L163.364 37.1172V37.0684ZM152.817 38.2891V38.3379L152.964 38.4844C153.289 38.4844 153.615 38.2728 153.94 37.8496V37.752L153.696 37.7031C153.403 37.7031 153.11 37.8984 152.817 38.2891ZM142.466 37.8496L142.222 38.0938V38.4844L142.368 38.6797H142.466L142.71 38.4355V38.0938L142.515 37.8496H142.466ZM151.304 38.2402V38.4844C151.401 38.9727 151.499 39.2168 151.597 39.2168C151.759 39.2168 151.89 39.0378 151.987 38.6797V38.3379C151.987 38.1426 151.873 37.9798 151.646 37.8496C151.418 37.8496 151.304 37.9798 151.304 38.2402ZM164.146 38.0938H164.048L163.901 38.7285L164.146 38.8262L164.292 38.6797V38.2891L164.146 38.0938ZM153.306 39.8516H153.257L153.159 40.4375V41.2188H153.257L153.306 40.5352V39.8516ZM163.853 41.2188L163.755 41.3164V41.5605H163.853L164.048 41.3652V41.3164L163.901 41.2188H163.853ZM153.745 44.2461H153.647L153.55 46.0039V47.1758C153.55 47.9896 153.631 48.3965 153.794 48.3965H153.892L154.038 47.7617L153.745 44.2461ZM151.646 45.7109L151.548 45.8574L151.597 45.9551H151.646V45.7109ZM152.183 49.373H152.036C151.841 50.1868 151.743 51.0658 151.743 52.0098V52.5957C151.743 54.1582 151.89 54.9395 152.183 54.9395C152.28 54.9395 152.345 54.679 152.378 54.1582L152.085 51.8633L152.329 50.7891L152.183 49.373ZM152.573 56.209H152.378V57.0391L152.817 57.7715V57.5273C152.817 56.6484 152.736 56.209 152.573 56.209ZM147.983 63.9238L147.739 64.168V64.4121C147.739 64.4772 147.804 64.5098 147.935 64.5098L148.96 64.4121V64.2656C148.83 64.0378 148.586 63.9238 148.228 63.9238H147.983ZM146.812 64.1191H146.665L146.567 64.2656L146.714 64.4121H146.909L147.007 64.2656L146.812 64.1191ZM157.163 64.8027C157.651 64.9329 158.221 64.998 158.872 64.998L158.97 64.9004V64.7539L158.481 64.6074H157.505C157.277 64.64 157.163 64.7051 157.163 64.8027ZM156.235 65.4375L156.04 65.6328C156.138 65.8607 156.3 65.9746 156.528 65.9746H156.821C157.017 65.9746 157.147 65.9258 157.212 65.8281V65.7305C157.212 65.6003 156.984 65.5026 156.528 65.4375H156.235ZM151.548 65.5352L151.108 65.6328V65.8281L151.548 65.877H152.231C152.427 65.877 152.541 65.8118 152.573 65.6816C152.41 65.584 152.166 65.5352 151.841 65.5352H151.548ZM148.13 65.7305L147.886 65.8281V65.9746L148.667 66.1211L149.302 65.9746V65.9258L149.106 65.7305H148.13ZM145.933 66.6582V66.7559L146.079 66.8535H146.177C146.405 66.7233 146.519 66.4954 146.519 66.1699V66.1211L146.372 65.9746H146.323C146.063 66.1374 145.933 66.3652 145.933 66.6582ZM158.823 66.1211L158.628 66.3164V66.4629L158.823 66.5605L158.97 66.3652V66.2188L158.823 66.1211ZM164.048 31.2578L165.024 31.209C169.191 31.3717 171.274 31.7461 171.274 32.332L171.616 39.5098C171.616 40.1608 171.258 41.8047 170.542 44.4414C170.379 45.4831 170.298 46.1667 170.298 46.4922V46.7852H170.444C172.625 45.0924 175.116 44.2461 177.915 44.2461C178.729 44.2461 180.226 44.7181 182.407 45.6621C182.83 45.9876 183.368 46.6549 184.019 47.6641C184.246 47.7943 184.393 48.0059 184.458 48.2988L184.409 48.7871C185.321 49.5033 185.776 50.7891 185.776 52.6445C185.874 52.6445 185.955 54.2396 186.021 57.4297V57.5273C186.021 58.1133 185.76 59.9036 185.239 62.8984L185.044 63.8262H186.069C187.144 63.8587 187.681 64.0052 187.681 64.2656C187.681 64.3958 187.16 64.5098 186.118 64.6074C186.118 64.7376 186.493 64.8841 187.241 65.0469L187.437 65.3398V65.4375C186.818 65.5352 186.509 65.6165 186.509 65.6816C187.127 65.8118 187.437 66.0234 187.437 66.3164C187.437 67.8464 186.997 68.6113 186.118 68.6113L185.728 68.6602C184.458 68.6602 183.823 68.4811 183.823 68.123C183.823 68.0254 183.156 67.944 181.821 67.8789C181.235 67.5534 180.763 67.3418 180.405 67.2441L180.356 67.0488C180.356 65.6165 180.568 63.5332 180.991 60.7988C181.154 59.2038 181.447 57.5111 181.87 55.7207L181.772 54.0117L181.919 53.7676C181.496 53.4421 181.284 52.9701 181.284 52.3516C180.894 51.668 180.568 51.1309 180.308 50.7402C179.168 50.252 178.485 50.0078 178.257 50.0078C176.597 49.4544 174.969 49.5195 173.374 50.2031C171.258 51.6354 170.2 52.6934 170.2 53.377L169.907 56.5508L170.005 59.8223C169.81 62.2311 169.565 63.4355 169.272 63.4355L169.224 63.6797L169.419 63.7285H169.614L170.444 63.3867C171.226 63.5169 171.616 63.7773 171.616 64.168L171.274 64.4609V64.6562C171.307 64.7539 171.519 64.8678 171.909 64.998L172.007 65.2422C171.812 66.9349 171.567 67.7812 171.274 67.7812H171.128C170.705 67.4883 168.963 67.2604 165.903 67.0977C163.722 66.9023 162.632 66.5768 162.632 66.1211V65.3398C162.599 65.2096 162.697 64.9655 162.925 64.6074V64.3145C162.534 63.7611 162.339 63.4355 162.339 63.3379C162.502 63.2077 163.283 63.1263 164.683 63.0938C164.91 63.0938 165.073 62.459 165.171 61.1895C165.399 61.0592 165.594 60.5547 165.757 59.6758C165.952 59.4154 166.05 59.1387 166.05 58.8457V58.7969C166.05 58.276 165.887 57.7552 165.562 57.2344L166.05 56.0625C166.278 56.0625 166.408 52.498 166.44 45.3691L167.124 38.1914V36.043C167.124 35.3268 166.896 34.9688 166.44 34.9688L164.829 34.9199L163.804 35.2129C163.641 35.2129 163.527 34.7734 163.462 33.8945V33.4062C163.462 31.974 163.657 31.2578 164.048 31.2578ZM163.95 66.0234V66.1211H164.048C164.471 66.1211 165.269 66.3327 166.44 66.7559C168.231 66.7884 169.647 66.9023 170.688 67.0977H170.835L170.981 66.9023V66.8535C170.981 66.528 169.435 66.3652 166.343 66.3652C165.822 66.0397 165.171 65.877 164.39 65.877C164.097 65.9095 163.95 65.9583 163.95 66.0234ZM184.165 61.6289H184.312C184.539 61.6289 184.849 60.4082 185.239 57.9668C185.239 57.6087 185.125 57.3809 184.897 57.2832H184.702C184.507 57.2832 184.328 58.7318 184.165 61.6289ZM182.7 51.4727L182.993 50.6914C183.123 50.9518 183.205 51.1471 183.237 51.2773C183.368 51.5052 183.498 51.6191 183.628 51.6191V51.2285C183.628 50.5775 183.172 49.8125 182.261 48.9336L182.017 48.8848H181.821V49.0801C182.277 49.5358 182.651 50.0241 182.944 50.5449L182.505 51.2773L182.7 51.4727ZM168.198 39.8027C168.101 39.998 168.052 40.584 168.052 41.5605C168.442 41.5605 168.638 41.8535 168.638 42.4395H168.687C168.784 42.2441 168.833 41.9023 168.833 41.4141V40.7793H168.784L168.589 41.3164H168.394L168.345 41.0234C168.41 40.763 168.475 40.6328 168.54 40.6328L168.833 40.7305C168.768 40.5352 168.556 40.2259 168.198 39.8027ZM165.708 62.9473C165.708 63.1751 166.245 63.3379 167.319 63.4355H167.417L167.563 63.3379V62.9473C167.498 62.8496 167.368 62.8008 167.173 62.8008H166.196C165.871 62.8008 165.708 62.8496 165.708 62.9473ZM181.187 65.4375H181.284L181.772 65.4863L183.286 65.4375L183.335 65.3887V65.3398C183.009 65.112 182.489 64.998 181.772 64.998C181.479 64.998 181.284 65.1445 181.187 65.4375ZM163.413 64.4609V64.6074H163.755H165.464C165.464 64.347 164.959 64.2005 163.95 64.168C163.625 64.168 163.446 64.2656 163.413 64.4609ZM177.329 48.3477L176.987 48.3965V48.6406C177.703 48.9987 178.159 49.1777 178.354 49.1777L178.55 48.9336C178.55 48.7383 178.143 48.543 177.329 48.3477ZM165.122 31.9414V32.0879C165.513 32.3809 166.066 32.5273 166.782 32.5273L166.88 32.332C166.196 32.0716 165.61 31.9414 165.122 31.9414ZM169.272 51.4238V51.8145H169.419C169.744 51.8145 169.956 51.5215 170.054 50.9355L170.103 50.8867V50.6426H170.054C169.826 50.7728 169.565 51.0332 169.272 51.4238ZM169.761 32.1855L169.565 32.4297C169.663 32.5924 169.81 32.7227 170.005 32.8203H170.054C170.282 32.8203 170.428 32.7389 170.493 32.5762V32.4785L170.298 32.1855H169.761ZM181.431 66.6582H180.894V66.8047C180.926 67 181.138 67.0977 181.528 67.0977H182.017V66.9512C182.017 66.8535 181.821 66.7559 181.431 66.6582ZM170.103 64.6074L170.005 64.6562V64.9004L170.298 65.1445H170.542L170.786 64.9492V64.9004L170.444 64.6074H170.103ZM166.099 33.6992L165.854 33.748V33.8457C165.887 33.9434 166.001 33.9922 166.196 33.9922H166.587L166.88 33.8945V33.748L166.587 33.6992H166.099ZM182.212 63.7285V63.9238H182.603L182.749 63.8262V63.582L182.603 63.4355C182.407 63.4355 182.277 63.5332 182.212 63.7285ZM169.81 52.3027L169.956 52.4492H170.298C170.493 52.4492 170.607 52.4004 170.64 52.3027L170.493 52.1562H170.298C170.037 52.1562 169.875 52.2051 169.81 52.3027ZM180.991 45.8574V46.0039C181.121 46.2318 181.366 46.3457 181.724 46.3457V46.1992C181.593 45.9714 181.349 45.8574 180.991 45.8574ZM180.112 49.5684V49.666C180.112 49.959 180.275 50.1055 180.601 50.1055V50.0566C180.568 49.7311 180.405 49.5684 180.112 49.5684ZM168.687 36.873L168.589 37.0195V37.3613L168.687 37.5078L168.882 37.3613V37.0684L168.687 36.873ZM165.708 32.918H165.562V32.9668L165.61 33.1621H166.245V32.9668L165.708 32.918ZM171.714 48.7871H171.86C172.218 48.5267 172.397 48.3639 172.397 48.2988H172.251C171.925 48.4616 171.746 48.6243 171.714 48.7871ZM184.702 50.1543L184.556 50.3008V50.3984L184.849 50.5938H184.946L185.044 50.4961L184.8 50.1543H184.702ZM178.403 44.7832H178.354V44.832C178.354 44.9297 178.566 45.0273 178.989 45.125V45.0762C178.989 44.9134 178.794 44.8158 178.403 44.7832ZM168.638 38.3379L168.54 38.4844V38.6309L168.687 38.7773L168.882 38.7285V38.582L168.687 38.3379H168.638ZM176.06 47.4199H175.718V47.5176L175.864 47.6641H176.206V47.5664L176.06 47.4199ZM173.813 49.666L173.618 49.8613V50.0078H173.765L173.96 49.8125V49.666H173.813ZM181.284 65.9746L181.138 66.1211V66.1699L181.284 66.3164H181.382L181.431 66.1211L181.284 65.9746ZM164.39 32.5762H164.341V32.9668H164.39L164.536 32.8203V32.6738L164.39 32.5762ZM185.044 56.4531L184.897 56.5508L185.044 56.6973H185.142V56.5508L185.044 56.4531ZM170.493 64.0215H170.298V64.168H170.493V64.0215ZM176.45 48.8848L176.353 48.9824H176.548V48.8848H176.45ZM183.042 50.5449L182.993 50.6426C182.928 50.6426 182.928 50.61 182.993 50.5449L183.042 50.4961V50.5449ZM200.815 42.4883C202.183 42.4883 203.843 43.0742 205.796 44.2461C207.456 45.4831 208.286 46.3294 208.286 46.7852C209.588 49.5195 210.239 51.1634 210.239 51.7168L210.288 52.1074C209.8 53.2467 209.556 54.028 209.556 54.4512L209.263 54.5H205.112C204.722 54.5 204.25 54.5488 203.696 54.6465C199.009 54.2559 195.721 54.0605 193.833 54.0605H192.808C192.417 54.6465 192.222 55.0697 192.222 55.3301C192.45 55.6882 192.563 56.2578 192.563 57.0391C192.563 58.276 192.759 59.0085 193.149 59.2363L193.198 59.4805V59.5293L192.905 59.3828V59.5293L193.345 60.0176C193.345 60.4408 193.638 60.9779 194.224 61.6289C195.298 63.5169 196.47 64.6888 197.739 65.1445C198.813 65.5026 200.034 65.6816 201.401 65.6816C201.629 65.6816 202.101 65.4701 202.817 65.0469C203.403 64.9167 204.64 63.8587 206.528 61.873V61.7266C206.528 61.6615 206.3 61.5964 205.845 61.5312L205.747 61.2871C206.496 59.8548 207.391 58.9108 208.433 58.4551C208.726 58.748 209.328 59.2038 210.239 59.8223C210.955 60.929 211.916 62.2311 213.12 63.7285V63.9238C212.078 65.291 211.33 65.9746 210.874 65.9746H210.679C210.679 65.2585 210.239 64.8516 209.36 64.7539C209.198 64.7539 208.481 65.291 207.212 66.3652C206.463 66.9512 205.177 67.5046 203.354 68.0254C201.239 68.4486 199.741 68.6602 198.862 68.6602L196.079 67.6836C194.517 67.6836 193.084 66.8372 191.782 65.1445C191.229 64.5586 190.773 63.8587 190.415 63.0449C190.415 62.7845 190.057 61.4336 189.341 58.9922C189.113 58.0482 188.999 57.1367 188.999 56.2578V56.209C188.999 51.8796 190.301 48.0872 192.905 44.832C193.231 44.0182 193.979 43.416 195.151 43.0254C195.933 42.7975 196.877 42.6185 197.983 42.4883C198.276 42.3581 199.22 42.3581 200.815 42.4883ZM196.323 43.5137V43.5625H196.421C196.942 43.5625 197.918 43.3835 199.351 43.0254C199.644 42.9928 199.79 42.9115 199.79 42.7812L199.644 42.6348H199.595C198.651 42.6348 197.593 42.8952 196.421 43.416L196.323 43.5137ZM194.37 44.3438V44.3926L194.517 44.4902H194.565C195.216 44.3275 195.542 44.1647 195.542 44.002V43.709L195.347 43.5137H195.249C194.663 43.709 194.37 43.9857 194.37 44.3438ZM201.89 43.8555H200.425V43.9531C200.425 44.0833 201.092 44.181 202.427 44.2461H202.476V44.0508C202.476 43.9857 202.28 43.9206 201.89 43.8555ZM198.423 44.5879V44.6367C198.423 44.7669 199.09 44.9297 200.425 45.125L200.522 45.0762V44.8809C200.262 44.5228 199.823 44.3438 199.204 44.3438H199.058C198.634 44.3763 198.423 44.4577 198.423 44.5879ZM201.401 44.8809V44.9297C203.257 46.0039 204.25 46.541 204.38 46.541H204.429L204.917 46.3457L205.21 46.4434L205.259 46.3457V46.2969C205.129 46.1992 204.852 46.1016 204.429 46.0039L203.452 45.5645C203.192 45.0111 202.671 44.7344 201.89 44.7344H201.743C201.515 44.7669 201.401 44.8158 201.401 44.8809ZM195.591 46.2969C195.916 46.0365 196.567 45.7598 197.544 45.4668V45.3691L197.495 45.2715H197.007C196.063 45.5319 195.591 45.8737 195.591 46.2969ZM193.003 49.5195V49.666C193.003 50.0241 195.965 50.431 201.89 50.8867L202.378 51.0332L203.013 50.9844C204.315 51.4076 205.194 51.6191 205.649 51.6191C205.649 51.7168 205.747 51.7982 205.942 51.8633C206.138 51.5703 206.235 51.2936 206.235 51.0332V50.1055C206.235 49.6823 205.422 48.7383 203.794 47.2734C203.045 46.5247 202.199 46.1016 201.255 46.0039L199.595 45.7109C196.893 46.2643 195.119 46.9316 194.272 47.7129C193.914 48.3965 193.491 48.9987 193.003 49.5195ZM193.54 46.5898V46.6875H193.638C194.061 46.5898 194.272 46.4759 194.272 46.3457V46.2969H194.028C193.866 46.2969 193.703 46.3945 193.54 46.5898ZM205.21 47.2734C205.275 47.5339 205.422 47.6641 205.649 47.6641H205.747L205.845 47.5176V47.2246L205.649 46.9805C205.356 46.9805 205.21 47.0781 205.21 47.2734ZM192.612 47.5176L192.515 47.6641V47.7129H192.612L192.808 47.5664V47.5176H192.612ZM206.431 47.9082H206.235C206.593 48.9824 206.854 49.5684 207.017 49.666H207.212L207.358 49.5684C207.098 48.5267 206.821 48.0059 206.528 48.0059L206.431 47.9082ZM193.052 48.7871C193.247 48.7546 193.345 48.6243 193.345 48.3965V48.3477C193.149 48.4128 193.052 48.5592 193.052 48.7871ZM208.091 50.1055L207.944 50.2031V50.5449L208.091 50.7402C208.221 50.7077 208.286 50.5938 208.286 50.3984V50.2031L208.237 50.1055H208.091ZM192.515 50.7891V50.9844L192.612 51.082H192.71C192.938 50.9844 193.133 50.8053 193.296 50.5449V50.3984H193.052C192.856 50.3984 192.677 50.5286 192.515 50.7891ZM190.513 50.4961C190.252 50.7565 190.024 51.4076 189.829 52.4492H189.927C190.122 52.4492 190.415 51.8796 190.806 50.7402C190.741 50.5775 190.643 50.4961 190.513 50.4961ZM195.493 51.082V51.2285C196.112 51.6517 197.235 51.8633 198.862 51.8633H199.302L199.937 51.8145V51.6191C198.602 51.3262 197.121 51.1471 195.493 51.082ZM204.429 52.3516H204.282V52.498H204.429V52.3516ZM195.005 52.7422V52.8398C195.656 53.0026 197.381 53.1654 200.181 53.3281V53.377V53.4258L199.155 53.5723C199.155 53.6699 199.578 53.7188 200.425 53.7188C201.792 53.7188 202.476 53.6536 202.476 53.5234C202.476 53.1979 199.985 52.9375 195.005 52.7422ZM190.073 53.084H189.829V53.377C189.829 53.5723 189.878 53.6699 189.976 53.6699C190.138 53.6699 190.236 53.5072 190.269 53.1816L190.073 53.084ZM194.028 53.1816L193.784 53.2305V53.5234H194.028V53.3281V53.2305V53.1816ZM192.466 53.5723V53.6211H192.515L193.345 53.5234V53.4258L193.198 53.2305H193.052C192.759 53.2305 192.563 53.3444 192.466 53.5723ZM204.331 53.6699C204.331 53.8001 204.624 53.8652 205.21 53.8652L205.649 53.8164V53.7188C205.649 53.5885 205.34 53.5234 204.722 53.5234C204.461 53.5885 204.331 53.6374 204.331 53.6699ZM189.829 54.9395V55.0859V55.1348C189.797 55.2324 189.78 55.4603 189.78 55.8184V56.0137C189.78 56.5996 189.943 57.1204 190.269 57.5762H190.317C190.317 56.0137 190.155 55.1348 189.829 54.9395ZM190.708 59.1875H190.562V59.2852L190.708 59.3828H190.806V59.2852L190.708 59.1875ZM191.05 60.0176L191.001 60.0664V60.1641C191.131 60.6849 191.326 60.9453 191.587 60.9453V60.8965V60.7988C191.587 60.5384 191.408 60.278 191.05 60.0176ZM206.968 60.457L207.065 60.6035H207.31C207.505 60.6035 207.619 60.5384 207.651 60.4082L207.456 60.2129H207.407C207.179 60.2129 207.033 60.2943 206.968 60.457ZM205.845 63.2891L205.942 63.3379H205.991C206.349 63.3379 206.577 63.1263 206.675 62.7031V62.6055C206.317 62.6055 206.04 62.8333 205.845 63.2891ZM209.263 63.1914L209.312 63.2402H209.458C209.653 63.11 209.751 62.931 209.751 62.7031H209.604C209.377 62.8333 209.263 62.9961 209.263 63.1914ZM210.972 62.7031H210.923V62.8008C211.021 63.1914 211.167 63.3867 211.362 63.3867H211.411L211.509 63.2891V63.2402C211.444 62.8822 211.265 62.7031 210.972 62.7031ZM208.14 63.7285L208.286 63.8262C208.774 63.6634 209.019 63.4518 209.019 63.1914V63.0938H208.97C208.514 63.0938 208.237 63.3053 208.14 63.7285ZM204.331 64.8027H204.429C204.689 64.7051 204.836 64.5423 204.868 64.3145L204.819 64.2656C204.494 64.4609 204.331 64.64 204.331 64.8027ZM207.212 65.0469H207.407C207.733 64.7539 207.896 64.5423 207.896 64.4121H207.847C207.424 64.5423 207.212 64.7539 207.212 65.0469ZM193.345 65.4863H193.198V65.6816C193.263 65.8444 193.54 66.0234 194.028 66.2188L194.224 66.3652C193.866 65.8118 193.573 65.5189 193.345 65.4863ZM196.763 65.6816H196.714V65.7305C196.714 65.8607 197.056 66.0072 197.739 66.1699L197.788 66.1211V66.0234C197.365 65.7956 197.023 65.6816 196.763 65.6816ZM199.644 66.2188H199.497V66.3652H199.644V66.2188ZM204.722 66.9512C205.047 66.9512 205.308 66.707 205.503 66.2188H205.356C204.933 66.4466 204.722 66.6908 204.722 66.9512ZM201.304 67.4395L200.278 67.3418H200.083C199.79 67.3418 199.627 67.4069 199.595 67.5371V67.6348L199.79 67.7812H200.669C201.678 67.7812 202.866 67.6022 204.233 67.2441C204.168 67.0488 203.973 66.9512 203.647 66.9512H203.403C202.622 66.9512 201.922 67.1139 201.304 67.4395ZM251.206 35.8477C251.955 35.8477 252.329 36.1732 252.329 36.8242C252.166 41.1862 251.971 43.3672 251.743 43.3672C251.743 43.8229 251.157 44.1159 249.985 44.2461H249.79C248.976 44.2461 248.569 43.9368 248.569 43.3184L248.716 42.7324C248.716 42.5371 247.967 41.8047 246.47 40.5352C245.298 39.7539 243.703 39.3633 241.685 39.3633C239.927 39.3633 238.153 40.4049 236.362 42.4883C233.368 45.418 231.87 48.1035 231.87 50.5449V50.5938L232.407 53.1816C232.407 54.0605 232.993 55.8997 234.165 58.6992C234.165 58.8945 234.686 59.6107 235.728 60.8477C235.825 61.4336 236.167 61.987 236.753 62.5078C237.697 63.3542 240.22 63.7773 244.321 63.7773C245.591 63.7773 247.039 63.0449 248.667 61.5801C249.155 61.2871 249.399 59.6595 249.399 56.6973V56.1113C249.399 55.7858 249.058 55.623 248.374 55.623C246.193 55.4928 245.103 55.2487 245.103 54.8906L245.054 54.5C245.249 53.1979 245.623 52.5469 246.177 52.5469L249.985 52.5957L254.624 52.1562C255.015 52.2539 255.21 52.4004 255.21 52.5957L255.063 54.207V54.5977C254.836 55.4766 254.429 55.916 253.843 55.916L252.427 55.8184V56.0137C252.655 56.0137 252.769 57.9831 252.769 61.9219C252.769 66.349 252.915 68.709 253.208 69.002H253.11L252.915 69.0508H250.767C250.571 69.0508 250.278 69.1322 249.888 69.2949C249.334 69.2949 249.058 68.7904 249.058 67.7812C249.058 67.0651 248.895 66.707 248.569 66.707C248.407 66.707 247.804 67.1139 246.763 67.9277C245.754 68.3184 244.907 68.5137 244.224 68.5137H243.882C241.799 68.5137 239.585 67.9766 237.241 66.9023C236.688 66.349 235.972 65.877 235.093 65.4863C234.149 64.7376 233.384 63.9076 232.798 62.9961C231.593 61.2057 230.991 60.1152 230.991 59.7246C230.34 58.6178 229.819 57.0228 229.429 54.9395L229.526 50.3984H229.575L230.015 50.8379C230.08 50.8379 230.145 50.6426 230.21 50.252C230.145 49.8613 230.047 49.666 229.917 49.666C229.819 49.666 229.657 49.7311 229.429 49.8613H229.38C229.412 48.429 229.738 46.9642 230.356 45.4668C231.268 44.3275 232.358 42.7487 233.628 40.7305C233.856 40.5677 234.035 40.2747 234.165 39.8516C234.588 39.3633 236.021 38.4681 238.462 37.166C238.983 36.9382 240.041 36.7103 241.636 36.4824H241.685C242.889 36.4824 245.184 36.9544 248.569 37.8984H248.667C248.83 37.7357 248.911 37.5404 248.911 37.3125V37.0684L248.813 36.7266C249.106 36.1406 249.904 35.8477 251.206 35.8477ZM233.872 44.3926H234.019C235.256 42.8952 235.874 42.0651 235.874 41.9023H235.728C234.588 42.944 233.97 43.7741 233.872 44.3926ZM233.286 42.4883H233.384C233.579 42.3581 233.709 42.2441 233.774 42.1465V42H233.726C233.433 42.1302 233.286 42.293 233.286 42.4883ZM232.017 45.0273L231.87 45.2227V45.3203H231.968L232.163 45.1738V45.0273H232.017ZM254.331 52.8887L254.185 53.0352V53.1816L254.331 53.2793L254.478 53.084V53.0352L254.38 52.8887H254.331ZM249.106 62.5566L248.96 62.7031L249.058 62.8496H249.204L249.399 62.7031L249.253 62.5566H249.106ZM245.103 64.4121C245.103 64.5098 245.151 64.5586 245.249 64.5586C245.444 64.5586 245.672 64.4121 245.933 64.1191V64.0703H245.835C245.477 64.0703 245.233 64.1842 245.103 64.4121ZM237.29 64.2656H237.095V64.3633C237.095 64.5586 237.502 64.7214 238.315 64.8516H238.901L238.999 64.7051C238.218 64.4121 237.648 64.2656 237.29 64.2656ZM249.79 66.707L249.595 66.8535V67L249.692 67.0977C249.888 67.0326 249.985 66.9674 249.985 66.9023V66.8047L249.79 66.707ZM245.688 67.6348V67.7812H245.737C246.095 67.7812 246.486 67.6185 246.909 67.293L246.86 67.0977H246.616C246.258 67.0977 245.949 67.2767 245.688 67.6348ZM275.376 42.7812L278.696 43.9043C278.729 44.3926 278.924 44.9134 279.282 45.4668L279.38 46.0039C279.087 48.0872 279.006 52.4167 279.136 58.9922C279.136 59.9362 279.526 60.5547 280.308 60.8477L280.649 61.6289C280.649 61.8242 281.724 62.0033 283.872 62.166H284.067C284.751 62.166 285.597 61.4336 286.606 59.9688C287.388 59.1875 287.909 58.569 288.169 58.1133H288.413V57.8203L288.315 57.5762C288.511 57.2832 288.657 56.8438 288.755 56.2578H288.804V55.8184L289.683 46.541V45.6621L289.585 45.1738V45.125C289.943 44.8646 290.122 44.4577 290.122 43.9043C290.122 43.5462 290.236 43.3509 290.464 43.3184L291.587 43.9043H292.661C293.963 43.9043 294.891 44.181 295.444 44.7344V44.9297C295.086 44.9297 294.907 44.9948 294.907 45.125L295.396 46.248H295.542C295.607 45.7598 295.672 45.5156 295.737 45.5156C295.868 45.6784 295.949 45.9551 295.981 46.3457L295.444 52.4004L295.542 52.498V52.5469C295.314 53.2305 295.086 55.1999 294.858 58.4551V59.8711C294.858 61.987 294.956 63.0449 295.151 63.0449H295.347C295.933 63.0449 296.877 62.9147 298.179 62.6543C298.309 62.6868 298.602 62.8822 299.058 63.2402C298.927 66.1699 298.732 67.6348 298.472 67.6348L297.935 67.1953L296.47 67.293L291.05 67.1953C290.757 67.1953 290.464 66.528 290.171 65.1934C289.976 65.0306 289.878 64.8353 289.878 64.6074L289.976 64.168H289.829C289.569 64.168 288.608 64.6074 286.948 65.4863C286.851 65.7142 285.711 66.1862 283.53 66.9023C283.042 67.1628 282.391 67.4232 281.577 67.6836C281.089 67.3906 280.308 67.0977 279.233 66.8047C277.183 64.7865 275.929 63.0124 275.474 61.4824C274.627 60.278 274.204 57.7064 274.204 53.7676L274.741 48.0547V47.9082C274.741 47.8431 273.634 47.6315 271.421 47.2734C271.226 46.9805 271.128 46.1667 271.128 44.832C271.128 43.9531 271.274 43.5137 271.567 43.5137C271.567 43.1556 272.837 42.9115 275.376 42.7812ZM274.546 43.3672L274.351 43.4648V43.5625H274.692V43.4648L274.546 43.3672ZM275.767 43.7578L275.522 43.8555V43.9043C275.522 43.9368 275.767 44.0833 276.255 44.3438C276.255 44.7669 276.287 44.9785 276.353 44.9785H276.646C277.427 44.9785 277.899 44.8483 278.062 44.5879V44.4902C278.062 44.2624 277.573 44.0833 276.597 43.9531C276.597 43.888 276.401 43.8229 276.011 43.7578H275.767ZM272.446 45.125H271.812V45.2715L271.909 45.3203H272.056L272.446 45.2715V45.125ZM272.446 45.6133H272.056V45.7109C272.088 45.9062 272.267 46.0039 272.593 46.0039L272.642 45.9062V45.8086L272.446 45.6133ZM290.61 44.4414H290.513C290.513 44.7669 290.773 44.9297 291.294 44.9297H291.587L291.733 44.832V44.7832C291.733 44.6204 291.359 44.5065 290.61 44.4414ZM273.716 46.1992C273.716 46.3945 274.237 46.6712 275.278 47.0293H275.767C275.897 47.0293 275.962 46.9154 275.962 46.6875C275.604 46.3294 275.164 46.1016 274.644 46.0039H274.253C273.927 46.0039 273.748 46.069 273.716 46.1992ZM273.081 46.0527L272.837 46.1504V46.2969L272.886 46.3457V46.3945C273.179 46.3294 273.325 46.248 273.325 46.1504V46.0527H273.081ZM277.378 46.5898V47.5176L277.524 47.6152C277.72 47.5176 277.817 47.3223 277.817 47.0293V46.4922C277.817 46.2969 277.769 46.1667 277.671 46.1016H277.573C277.443 46.1341 277.378 46.2969 277.378 46.5898ZM272.007 46.3945L271.812 46.5898L271.909 46.6875H272.3L272.446 46.5898L272.251 46.3945H272.007ZM291.05 46.0039L290.903 46.1504V46.248C290.903 46.3783 291.017 46.4434 291.245 46.4434H291.294C291.522 46.4434 291.652 46.3783 291.685 46.248V46.1504C291.652 46.0527 291.489 46.0039 291.196 46.0039H291.05ZM275.229 48.7871V49.1777L275.962 48.9336V47.9082L275.864 47.7617C275.701 47.7617 275.49 48.1035 275.229 48.7871ZM291.733 51.375V51.5703H291.782C292.108 51.5703 292.271 51.196 292.271 50.4473C292.238 50.1217 292.189 49.959 292.124 49.959C292.026 49.959 291.896 50.431 291.733 51.375ZM293.687 52.8887H293.54L293.442 53.084C293.507 53.2467 293.573 53.3281 293.638 53.3281H293.687V52.8887ZM276.108 54.2559L275.962 54.207L275.767 54.4023V54.5L275.962 54.5977L276.108 54.4512V54.2559ZM291.05 56.0137L291.294 56.2578C291.457 56.1927 291.554 55.8672 291.587 55.2812L291.538 55.1836H291.44C291.18 55.3789 291.05 55.6556 291.05 56.0137ZM277.085 55.916V56.2578C277.085 56.681 277.297 57.0065 277.72 57.2344H277.866C277.866 56.0299 277.769 55.4277 277.573 55.4277H277.378C277.183 55.5254 277.085 55.6882 277.085 55.916ZM290.952 56.5508L290.806 56.6973V57.1367L290.952 57.332C291.147 57.2344 291.294 57.0879 291.392 56.8926V56.6973L291.245 56.5508H290.952ZM275.425 57.0879L275.278 57.2344V57.4297C275.278 58.6992 275.962 60.6849 277.329 63.3867C277.59 63.5495 277.769 63.6309 277.866 63.6309V63.3867L276.45 59.4316C276.027 57.9342 275.701 57.153 275.474 57.0879H275.425ZM292.124 58.4551L291.929 58.6504V58.6992L292.124 58.8457L292.271 58.6992L292.222 58.4551H292.124ZM286.753 60.8477L286.802 60.9453H286.851C287.632 59.9036 288.022 59.3014 288.022 59.1387V59.041H287.876C287.616 59.3665 287.241 59.9688 286.753 60.8477ZM278.013 59.1387V59.1875C278.11 59.3828 278.241 59.4805 278.403 59.4805V59.4316C278.403 59.2363 278.273 59.1387 278.013 59.1387ZM292.026 59.2363H291.929V59.5293C291.929 60.0501 292.01 60.7174 292.173 61.5312H292.319C292.45 61.043 292.515 60.571 292.515 60.1152V59.7734C292.515 59.4154 292.352 59.2363 292.026 59.2363ZM289.39 59.7246L289.194 59.4805C288.999 59.7409 288.901 59.9362 288.901 60.0664L289.146 60.2129H289.194L289.39 60.0664V59.7246ZM291.05 60.2129H290.952V60.5547H291.05L291.196 60.4082V60.2617L291.05 60.2129ZM279.429 61.6289H279.38V61.7754L279.478 61.9219H279.526V61.7754L279.429 61.6289ZM294.126 61.6777L293.638 62.4102V62.5566H294.126L294.321 62.4102V62.166C294.321 61.873 294.256 61.7103 294.126 61.6777ZM289.585 62.5078V62.5566H289.683L290.024 62.2637V62.0684C289.731 62.0684 289.585 62.2148 289.585 62.5078ZM291.05 62.4102L290.903 62.5566V63.1426C290.903 65.4212 291.017 66.5605 291.245 66.5605H291.392C291.619 66.528 291.733 66.4303 291.733 66.2676C291.473 65.8118 291.326 64.6237 291.294 62.7031L291.05 62.4102ZM279.087 62.6543H278.94V62.8496C278.973 62.9798 279.087 63.0449 279.282 63.0449V62.8496L279.087 62.6543ZM280.308 62.9961H280.161V63.0449C280.161 63.403 280.731 63.9238 281.87 64.6074C283.172 64.0866 283.823 63.7611 283.823 63.6309V63.582C282.977 63.582 281.805 63.3867 280.308 62.9961ZM282.651 64.8027V64.9004H283.237C284.507 64.6074 285.353 64.168 285.776 63.582V63.3867H285.532C285.337 63.3867 284.377 63.8587 282.651 64.8027ZM297.056 63.7773L295.542 63.9727V64.168L295.835 64.2168H296.03C296.746 64.1842 297.104 64.0703 297.104 63.875V63.7773H297.056ZM297.056 64.6074H296.86V64.9004H297.056L297.202 64.8027V64.7051C297.202 64.64 297.153 64.6074 297.056 64.6074ZM293.101 65.3887L292.954 65.4863V65.6328C293.019 65.7956 293.215 65.877 293.54 65.877H294.028L294.175 65.7793V65.6816C294.175 65.5189 293.963 65.4212 293.54 65.3887H293.101ZM281.724 65.877H281.333L279.38 65.6816H279.282L279.087 65.877V65.9258C279.087 66.2188 279.998 66.5443 281.821 66.9023C282.375 66.9023 283.465 66.4954 285.093 65.6816L285.142 65.6328V65.4863H284.8C283.823 65.7467 282.798 65.877 281.724 65.877ZM308.14 42.1465C308.498 42.2116 308.677 42.2604 308.677 42.293L308.481 42.6348V42.6836H308.579L311.069 42.6348C313.901 42.6348 315.789 43.3509 316.733 44.7832C317.482 45.7598 317.889 46.3294 317.954 46.4922L318.149 46.541C318.475 46.541 320.314 45.6621 323.667 43.9043C324.123 43.6764 324.497 43.5625 324.79 43.5625C326.125 43.5625 327.508 44.0671 328.94 45.0762C331.707 47.2572 333.091 49.1126 333.091 50.6426C333.384 51.2611 333.888 54.5977 334.604 60.6523V61.9707C334.604 62.2637 334.686 62.4427 334.849 62.5078H335.044C335.304 62.5078 335.825 62.3776 336.606 62.1172C337.127 62.1172 337.388 63.0775 337.388 64.998C337.453 65.9746 337.485 66.707 337.485 67.1953H336.802C335.435 67.4232 334.23 67.5371 333.188 67.5371L331.626 67.3418L328.794 67.4395H328.306C328.241 67.4395 328.208 67.3092 328.208 67.0488L327.573 66.4141V66.3652L327.72 65.877V65.7793L327.476 64.4609V63.8262C327.476 63.403 327.801 63.1914 328.452 63.1914C329.624 63.3216 330.112 62.8822 329.917 61.873C329.884 59.334 329.982 57.4297 330.21 56.1602V56.0625L330.112 53.1328C330.112 52.612 329.673 52.0098 328.794 51.3262L328.403 51.2285H328.062L327.671 51.4238C327.606 51.4238 327.573 51.2773 327.573 50.9844C326.825 50.0078 325.62 49.5195 323.96 49.5195C321.844 49.7148 320.575 50.3496 320.151 51.4238C320.086 51.7168 320.021 52.4818 319.956 53.7188L320.054 54.8418V58.3574L320.005 59.7734C320.005 61.2383 320.412 62.0846 321.226 62.3125C321.584 62.3776 321.763 62.4915 321.763 62.6543C321.405 64.2819 321.177 65.1771 321.079 65.3398L319.858 65.584L315.708 65.2422L315.22 65.3398C314.666 65.3398 314.39 64.5098 314.39 62.8496V62.6543C314.39 62.459 314.878 62.2148 315.854 61.9219C316.115 61.9219 316.245 61.7917 316.245 61.5312C316.082 60.7174 316.001 59.806 316.001 58.7969L316.099 53.4258C315.903 52.7096 315.806 52.14 315.806 51.7168C315.838 50.903 315.952 50.4961 316.147 50.4961L316.587 50.7402H316.636V50.6426C316.636 49.9264 315.529 48.901 313.315 47.5664C312.729 47.3385 312.144 47.2246 311.558 47.2246C310.646 47.2246 309.621 47.6315 308.481 48.4453L308.433 48.6895V52.6445L308.579 62.8496L308.774 63.0449H308.97C309.067 63.0449 309.132 62.931 309.165 62.7031H309.263C310.142 62.7031 310.679 62.931 310.874 63.3867V63.7773L310.923 64.9492C310.988 66.2839 310.646 66.9512 309.897 66.9512C309.702 67.0163 308.823 67.0814 307.261 67.1465L300.913 66.7559C300.588 66.7559 300.278 65.763 299.985 63.7773V63.7285C299.985 63.4355 300.653 63.0938 301.987 62.7031C301.987 62.4753 302.638 62.2637 303.94 62.0684C304.168 62.0358 304.282 61.873 304.282 61.5801L304.624 50.1543L304.722 47.4688C304.722 47.1758 304.412 47.0293 303.794 47.0293C303.175 47.0293 302.41 47.1107 301.499 47.2734C300.946 46.9805 300.669 46.6712 300.669 46.3457C300.929 46.1829 301.06 45.9225 301.06 45.5645V45.1738C300.897 44.3275 300.701 43.9043 300.474 43.9043L300.425 43.8555V43.7578C300.62 43.6276 300.848 43.3184 301.108 42.8301C303.289 42.5371 305.633 42.3092 308.14 42.1465ZM306.04 46.5898V49.0312C306.04 49.5195 305.942 50.0078 305.747 50.4961L306.089 50.9844L305.991 51.7656V52.2539L306.089 52.3516H306.138C306.398 52.3516 306.545 50.5775 306.577 47.0293V46.9805C306.577 46.5898 306.463 46.3294 306.235 46.1992C306.105 46.2318 306.04 46.362 306.04 46.5898ZM301.548 45.6621C301.548 45.9876 301.841 46.1504 302.427 46.1504C303.175 46.1504 303.94 45.9062 304.722 45.418V45.2715H304.526C302.541 45.2715 301.548 45.4017 301.548 45.6621ZM309.653 45.0762V45.125L312.192 44.832C312.909 44.832 313.641 45.1576 314.39 45.8086H314.536V45.6133C314.341 44.9297 313.999 44.5879 313.511 44.5879H313.071C310.825 44.5879 309.686 44.7507 309.653 45.0762ZM325.913 44.2461C325.718 44.3438 325.62 44.4251 325.62 44.4902C325.62 44.5553 325.897 44.6693 326.45 44.832C326.743 45.2552 327.101 45.4668 327.524 45.4668H328.452V45.3203C328.452 44.9948 327.622 44.6367 325.962 44.2461H325.913ZM303.11 64.5098L302.964 64.6562C302.964 65.0794 303.534 65.1608 304.673 64.9004C304.803 65.1283 304.982 65.2422 305.21 65.2422C306.024 65.2096 306.87 65.1283 307.749 64.998V64.8027L306.479 64.7539C305.666 64.819 304.689 64.7865 303.55 64.6562L303.306 64.5098H303.11ZM310.874 45.8086C310.874 45.9062 311.33 46.069 312.241 46.2969C312.86 46.6224 313.397 46.7852 313.853 46.7852H313.901L313.999 46.6387C313.25 45.9876 312.42 45.6621 311.509 45.6621H311.216C310.988 45.6947 310.874 45.7435 310.874 45.8086ZM326.89 48.2988L326.743 48.4453C327.459 49.2266 328.127 49.6172 328.745 49.6172L328.892 49.5195V49.2754C328.664 48.9824 328.306 48.6569 327.817 48.2988H326.89ZM324.741 46.541V46.6387C324.839 46.8014 324.937 46.8828 325.034 46.8828C326.369 46.8828 327.085 46.8014 327.183 46.6387C327.085 46.3457 326.564 46.1992 325.62 46.1992H325.522C325.034 46.1992 324.774 46.3132 324.741 46.541ZM331.333 55.5742H331.04L330.942 55.7695L331.089 57.625V57.7715L331.235 57.9668H331.333L331.577 57.7227V55.8184L331.333 55.5742ZM301.353 63.5332H301.206C301.206 63.8262 301.076 64.1029 300.815 64.3633C301.043 65.4701 301.287 66.0234 301.548 66.0234H301.694L301.401 63.582L301.353 63.5332ZM317.026 54.9883L316.929 55.4277V57.2344L317.026 58.1133H317.173C317.303 57.8203 317.368 57.4134 317.368 56.8926C317.303 55.623 317.189 54.9883 317.026 54.9883ZM308.286 43.709V43.7578L308.481 43.8555L311.655 43.2695V43.1719H310.19C308.921 43.1719 308.286 43.3509 308.286 43.709ZM318.54 47.3223V47.7617L318.735 47.9082C319.126 47.9082 319.631 47.6152 320.249 47.0293H319.028C318.8 47.0293 318.638 47.127 318.54 47.3223ZM307.456 48.4453H307.358C307.293 48.9661 307.261 49.5195 307.261 50.1055V50.7402L307.358 50.9844C307.586 50.9844 307.7 50.5449 307.7 49.666V49.2754C307.7 48.722 307.619 48.4453 307.456 48.4453ZM329.478 47.3223H329.331V47.6152C329.461 48.0059 329.771 48.3965 330.259 48.7871V48.9336H330.601V48.8359C330.601 48.4779 330.226 47.9733 329.478 47.3223ZM321.909 45.8086V45.9062H321.958C322.153 45.9062 322.707 45.5319 323.618 44.7832V44.5879C322.479 44.946 321.909 45.3529 321.909 45.8086ZM331.431 64.3145V64.4609H332.065C333.009 64.4609 333.481 64.3633 333.481 64.168L333.286 64.0703H333.188C332.017 64.0703 331.431 64.1517 331.431 64.3145ZM329.478 65.0469V65.1445H330.747C331.073 65.1445 331.268 65.0632 331.333 64.9004C331.3 64.7702 331.17 64.7051 330.942 64.7051H330.21C330.047 64.7051 329.803 64.819 329.478 65.0469ZM331.187 52.3027L331.772 53.1816H331.968V52.8398V52.4492C331.968 52.2539 331.919 52.1237 331.821 52.0586H331.382C331.317 52.0586 331.252 52.14 331.187 52.3027ZM306.04 61.5312H305.015C305.047 62.0521 305.112 62.3125 305.21 62.3125H305.356C305.78 62.3125 306.007 62.0521 306.04 61.5312ZM302.622 44.2461L301.694 44.3438V44.4902L301.841 44.5879C303.175 44.5879 303.843 44.5228 303.843 44.3926L303.696 44.2461H302.622ZM302.085 63.2891L302.134 64.0215H302.231C302.459 63.696 302.785 63.4518 303.208 63.2891V63.1426L302.769 63.0449H302.28C302.15 63.0449 302.085 63.1263 302.085 63.2891ZM308.481 64.6074L308.286 64.7539C308.286 65.0469 308.595 65.2096 309.214 65.2422L309.458 65.0469V64.8516C309.458 64.6888 309.132 64.6074 308.481 64.6074ZM307.749 62.5566L306.772 61.7266V61.8242C306.772 62.4753 306.968 62.8008 307.358 62.8008H307.651C307.716 62.8008 307.749 62.7194 307.749 62.5566ZM315.757 46.6387H315.708V46.6875C315.708 47.013 316.001 47.306 316.587 47.5664V47.0293C316.587 46.9642 316.31 46.834 315.757 46.6387ZM330.454 50.1543H330.356V50.252C330.617 51.1309 330.861 51.5703 331.089 51.5703V51.4727C331.089 51.0169 330.877 50.5775 330.454 50.1543ZM313.511 43.709H313.218V43.8555C313.966 44.0182 314.438 44.0996 314.634 44.0996H314.731V44.002C314.731 43.8066 314.325 43.709 313.511 43.709ZM315.61 45.4668H315.513V45.6621C315.806 46.1178 316.066 46.4108 316.294 46.541H316.44V46.4922C316.278 46.1016 316.001 45.7598 315.61 45.4668ZM308.97 64.168L307.7 64.2656V64.4609H308.628L309.36 64.3633V64.168H308.97ZM320.542 46.3945L320.591 46.4922H320.884C321.307 46.4596 321.519 46.3132 321.519 46.0527L321.372 46.0039C320.884 46.1016 320.607 46.2318 320.542 46.3945ZM332.847 62.6055V62.7031L332.993 62.8496H333.14L333.335 62.6055V62.3613L333.237 62.166H333.042C332.912 62.2637 332.847 62.4102 332.847 62.6055ZM304.722 63.6309L304.331 63.7285V63.875L304.722 63.9238H305.112L305.405 63.875V63.7285L305.112 63.6309H304.722ZM334.165 64.2656L334.214 64.3145H334.409C334.572 64.3145 334.686 64.2656 334.751 64.168V64.1191C334.751 63.8587 334.702 63.7285 334.604 63.7285C334.474 63.7285 334.328 63.9076 334.165 64.2656ZM303.647 43.1719L303.794 43.3672C304.445 43.3021 304.771 43.2044 304.771 43.0742L304.526 43.0254C303.94 43.0579 303.647 43.1068 303.647 43.1719ZM335.776 63.2402L335.581 63.3867V63.9727L335.776 64.168C335.874 64.168 335.923 63.9076 335.923 63.3867L335.874 63.2402H335.776ZM308.091 66.0234V66.1211L308.237 66.2188C308.53 66.0885 308.758 65.9258 308.921 65.7305V65.6328C308.628 65.6328 308.351 65.763 308.091 66.0234ZM318.589 50.1055L318.54 50.252C318.605 50.5124 318.67 50.6426 318.735 50.6426H318.784L319.077 50.3984V50.252C319.045 50.1543 318.882 50.1055 318.589 50.1055ZM308.237 46.4922V46.5898H308.433C308.856 46.5573 309.067 46.4759 309.067 46.3457V46.1992H308.677C308.384 46.2643 308.237 46.362 308.237 46.4922ZM318.442 62.166L318.247 62.4102L318.394 62.5566H318.735L318.931 62.3613V62.3125L318.784 62.166H318.442ZM325.718 44.9785H325.425V45.125C325.425 45.2227 325.588 45.2715 325.913 45.2715H326.108L326.206 45.1738C326.174 45.0436 326.011 44.9785 325.718 44.9785ZM307.456 52.2539L307.358 52.3516V52.6445L307.554 52.8398H307.651L307.749 52.7422V52.498L307.505 52.2539H307.456ZM307.456 42.6836L307.358 42.8301V42.9766L307.505 43.123C307.733 43.123 307.847 43.0091 307.847 42.7812L307.798 42.6836H307.456ZM314.927 45.7109L314.829 45.8086C314.829 46.1341 314.976 46.2969 315.269 46.2969V46.1992C315.269 45.9714 315.155 45.8086 314.927 45.7109ZM317.173 49.1289H317.075C317.075 49.3893 317.205 49.5195 317.466 49.5195H317.563V49.3242C317.531 49.194 317.401 49.1289 317.173 49.1289ZM317.368 64.2656L317.222 64.4609V64.5586L317.515 64.6074L317.808 64.5586V64.4609L317.661 64.2656H317.368ZM309.8 63.2891H309.458V63.582L309.8 63.6309L309.946 63.4355L309.8 63.2891ZM302.427 64.9004H302.329V65.2422L302.427 65.3887H302.573V65.0469L302.427 64.9004ZM331.235 59.7734L331.089 59.9199V60.1152L331.187 60.2129H331.333V59.7734H331.235ZM307.358 43.6113L307.261 43.7578V43.8555L307.358 43.9531H307.456L307.651 43.8555L307.554 43.6113H307.358ZM331.431 61.0918L331.235 61.3359V61.3848L331.431 61.5801L331.577 61.3848V61.2871L331.431 61.0918ZM308.433 45.0762L308.237 44.9785L308.14 45.1738L308.237 45.2715H308.286L308.433 45.1738V45.0762ZM318.638 61.1406L318.54 61.2871V61.4336L318.735 61.4824L318.784 61.2871L318.735 61.1406H318.638ZM306.138 52.6445H306.089V52.8398L306.235 52.9863H306.284V52.7422L306.138 52.6445ZM305.747 44.832L305.649 44.9785V45.0762H305.747L305.942 44.9297V44.832H305.747ZM307.456 64.5098H307.554V64.4609C307.521 64.4609 307.489 64.4772 307.456 64.5098ZM341.587 36.1406L342.173 36.3359C343.833 36.2057 347.658 36.1406 353.647 36.1406L355.991 36.873C357.489 37.0684 358.498 37.3776 359.019 37.8008C361.427 39.9167 362.632 41.7396 362.632 43.2695C362.469 44.1159 362.127 45.4505 361.606 47.2734C360.467 48.4453 359.393 49.4056 358.384 50.1543C358.384 50.4473 358.693 50.7077 359.312 50.9355C359.637 51.1634 360.158 51.4238 360.874 51.7168C361.265 52.1074 361.899 52.8887 362.778 54.0605C363.95 55.2324 364.634 56.6484 364.829 58.3086L364.878 58.8457C364.878 59.1712 364.764 59.334 364.536 59.334V59.3828C364.536 59.5781 364.715 60.0013 365.073 60.6523V61.0918C365.073 61.3848 364.845 62.0358 364.39 63.0449C364.39 63.4681 364.032 63.7448 363.315 63.875C362.892 63.875 362.469 64.168 362.046 64.7539V64.8516C362.046 64.9167 362.176 64.9818 362.437 65.0469V65.0957C362.371 65.2585 362.257 65.3398 362.095 65.3398C362.095 65.1445 362.046 65.0469 361.948 65.0469C361.883 65.0469 361.818 65.1771 361.753 65.4375C361.167 65.4375 360.467 65.6979 359.653 66.2188V66.3164H359.8C359.995 66.3164 360.467 66.1536 361.216 65.8281V65.877C360.728 66.3327 359.735 66.7233 358.237 67.0488C356.154 67.9928 351.955 68.4648 345.64 68.4648V68.3672L345.591 68.123C344.093 68.123 342.726 68.416 341.489 69.002C340.968 69.002 340.708 68.1068 340.708 66.3164C340.708 66.056 341.685 65.6491 343.638 65.0957C345.07 64.9329 345.786 64.7865 345.786 64.6562V64.6074C345.591 64.6074 345.363 63.2402 345.103 60.5059C345.037 59.4316 344.94 58.6992 344.81 58.3086C344.81 57.9505 344.94 57.4785 345.2 56.8926C345.135 54.5488 344.956 53.377 344.663 53.377C344.468 53.377 344.305 50.724 344.175 45.418V40.4375C343.459 40.1445 342.987 39.998 342.759 39.998H342.417C342.189 39.998 342.043 40.0794 341.978 40.2422V40.3398L342.026 40.7305C342.026 40.7956 341.799 41.3327 341.343 42.3418V42.4395L340.562 42.4883C340.464 42.3255 340.155 42.2279 339.634 42.1953C339.341 42.1953 339.146 41.235 339.048 39.3145C338.95 38.7611 338.771 38.1263 338.511 37.4102C338.999 36.7266 339.536 36.3848 340.122 36.3848C340.122 36.3197 340.61 36.2383 341.587 36.1406ZM346.128 37.752L346.226 37.8008H347.593C348.83 37.8008 349.448 37.6706 349.448 37.4102V37.3613C349.448 37.3288 349.351 37.2799 349.155 37.2148C347.235 37.3125 346.226 37.4915 346.128 37.752ZM343.931 37.6055L345.2 37.9961H345.298C345.493 37.9961 345.656 37.8984 345.786 37.7031C345.786 37.5404 345.412 37.4264 344.663 37.3613C344.175 37.3939 343.931 37.4753 343.931 37.6055ZM350.767 37.3613H350.522V37.5078H350.767V37.3613ZM358.677 38.5332L358.53 38.6797V38.7285L358.726 38.9727H359.019L359.116 38.8262V38.7773L358.921 38.5332H358.677ZM347.007 39.2168V39.3145L347.153 39.5098H347.349C349.009 39.347 349.904 39.1517 350.034 38.9238L349.937 38.8262C347.983 38.9238 347.007 39.054 347.007 39.2168ZM347.349 40.5352C347.609 47.5339 347.837 51.0332 348.032 51.0332L348.179 51.1309H348.228L352.671 50.1055C354.624 49.8451 355.601 49.5846 355.601 49.3242C357.944 47.5013 359.116 46.248 359.116 45.5645V45.2715C358.758 43.416 358.579 42.3743 358.579 42.1465C358.579 41.3001 358.009 40.5026 356.87 39.7539C356.447 39.6562 355.649 39.5911 354.478 39.5586C349.725 39.819 347.349 40.1445 347.349 40.5352ZM358.677 39.998H358.237V40.1445C358.823 40.6654 359.116 41.3978 359.116 42.3418C359.377 43.2858 359.556 43.8392 359.653 44.002H359.751V43.5625C359.458 41.1862 359.1 39.998 358.677 39.998ZM361.362 41.0723H361.216V41.2188L361.46 41.4141H361.606V41.2676L361.362 41.0723ZM360.483 42.1953L360.337 42.3418L360.386 42.5371H360.532L360.825 42.293L360.679 42.1953H360.483ZM360.825 43.4648L360.679 43.3672L360.63 43.416V43.6602L360.728 43.7578L360.825 43.709V43.4648ZM344.81 44.6855L344.663 44.832V45.2715L344.81 45.3691H344.858L345.005 45.2715V45.0762C345.005 44.8483 344.94 44.7181 344.81 44.6855ZM357.896 49.1289L357.7 49.3242H357.847L357.944 49.2266V49.1289H357.896ZM350.815 51.2773H350.962V51.3262C352.98 51.1634 353.989 50.9844 353.989 50.7891V50.7402H353.745C351.955 50.7728 350.978 50.9518 350.815 51.2773ZM355.991 51.2285V51.3262H356.04C356.724 51.3262 357.603 51.4889 358.677 51.8145C358.774 51.8145 358.823 51.7493 358.823 51.6191C358.628 51.1634 358.188 50.9355 357.505 50.9355H356.968C356.317 50.9355 355.991 51.0332 355.991 51.2285ZM359.458 51.9609V52.0098C359.849 52.4655 360.207 52.6934 360.532 52.6934V52.6445C360.532 52.319 360.174 52.0911 359.458 51.9609ZM351.011 53.0352C351.011 53.1003 351.076 53.1328 351.206 53.1328C352.085 53.1003 353.013 52.9701 353.989 52.7422L355.698 52.6934H356.284L356.626 52.6445V52.5469C356.626 52.3841 356.138 52.3027 355.161 52.3027H354.282C352.524 52.3027 351.434 52.5469 351.011 53.0352ZM350.522 52.8398H350.327V52.9375H350.522V52.8398ZM357.944 52.8398H357.847V53.0352H357.944V52.8398ZM347.935 53.5234V53.6211H348.081C348.895 53.5234 349.302 53.3932 349.302 53.2305H349.155C348.862 53.2305 348.455 53.3281 347.935 53.5234ZM347.837 54.2559L347.69 54.5L347.642 55.5742C347.772 61.1406 348.016 64.2982 348.374 65.0469C348.537 65.6003 348.927 65.877 349.546 65.877L353.892 66.0723C355.649 65.9746 357.798 65.2259 360.337 63.8262C361.574 62.5892 362.192 61.7428 362.192 61.2871C362.323 61.2871 362.404 61.1243 362.437 60.7988V60.6523C362.437 59.1875 361.997 57.625 361.118 55.9648C360.207 54.9883 359.474 54.5 358.921 54.5H358.53C358.335 54.4349 358.237 54.3861 358.237 54.3535C358.237 54.2233 358.351 54.1582 358.579 54.1582V54.0605C358.351 53.735 357.993 53.5723 357.505 53.5723H357.456V53.6211L357.7 53.9141V54.0117H357.603C356.105 53.5234 354.901 53.2793 353.989 53.2793H353.745C351.499 53.2793 349.53 53.6048 347.837 54.2559ZM360.825 53.6699L360.679 53.7676C360.809 54.2559 361.216 54.7604 361.899 55.2812H362.046V55.0859C361.948 54.6302 361.558 54.1582 360.874 53.6699H360.825ZM360.239 65.1445L360.337 65.2422H360.386C360.809 65.2422 361.134 64.998 361.362 64.5098V64.4609H361.313C360.597 64.6888 360.239 64.9167 360.239 65.1445ZM346.372 64.7539H346.079V64.8027C346.112 64.9329 346.226 64.998 346.421 64.998V64.8516L346.372 64.7539ZM358.921 65.7305V65.9258H359.116C359.344 65.9258 359.556 65.7793 359.751 65.4863V65.3398C359.198 65.4375 358.921 65.5677 358.921 65.7305ZM345.054 66.5605H344.712V66.8047H345.054H345.298H345.591V66.5605H345.298H345.054ZM349.644 67.0488L349.546 67.1465H349.79L349.644 67.0488ZM342.856 67.2441L342.71 67.293C342.775 67.4557 342.905 67.5371 343.101 67.5371L343.296 67.293L343.198 67.2441H342.856ZM378.892 43.9043L380.259 44.2949H380.698C382.554 45.2064 384.279 46.2969 385.874 47.5664C387.534 48.9987 388.364 50.0729 388.364 50.7891H388.267C388.006 50.3333 387.746 50.1055 387.485 50.1055H387.437C387.339 50.1055 387.29 50.1706 387.29 50.3008C387.42 50.6589 387.713 51.2773 388.169 52.1562H388.267C388.332 52.1562 388.413 51.9935 388.511 51.668H388.56C388.657 51.7005 388.771 52.1725 388.901 53.084L389.341 54.0605L389.243 54.6953L389.39 56.4531C389.162 57.2669 388.95 58.3411 388.755 59.6758C388.625 60.2943 387.111 62.6055 384.214 66.6094C382.912 67.8464 381.642 68.4648 380.405 68.4648C379.266 68.5951 377.98 68.6602 376.548 68.6602H375.62C375.067 68.6602 373.618 68.1882 371.274 67.2441C368.312 64.6074 366.831 62.5892 366.831 61.1895C366.408 60.3105 366.05 59.4967 365.757 58.748C365.757 58.3249 366.196 56.9251 367.075 54.5488C367.075 53.0514 367.433 52.0098 368.149 51.4238C369.679 48.1361 371.616 46.0039 373.96 45.0273C376.011 44.2786 377.655 43.9043 378.892 43.9043ZM370.103 59.2363V59.5293C370.558 60.4082 371.063 61.3522 371.616 62.3613C371.616 62.6868 372.235 63.1426 373.472 63.7285C374.058 64.4121 375.148 64.9492 376.743 65.3398L377.622 65.4375C379.054 65.1445 380.129 64.8353 380.845 64.5098L382.603 63.0449C384.425 61.0918 385.304 59.4479 385.239 58.1133V57.6738C385.044 57.153 384.946 56.3066 384.946 55.1348C384.946 54.2233 385.011 53.5072 385.142 52.9863C385.142 52.7585 384.507 52.1888 383.237 51.2773C382.326 49.9753 381.382 49.1777 380.405 48.8848H379.819C376.011 49.0475 374.106 49.3568 374.106 49.8125C373.26 50.6589 372.674 51.4889 372.349 52.3027C371.307 53.4095 370.786 54.1419 370.786 54.5C370.493 55.8346 370.265 57.4134 370.103 59.2363ZM371.616 47.4199L371.47 47.6641V47.8594C371.665 47.8594 372.658 47.1758 374.448 45.8086L374.839 45.6621L375.132 45.7109C377.313 45.4831 378.403 45.2715 378.403 45.0762V45.0273L377.622 44.8809C375.409 44.8809 373.407 45.7272 371.616 47.4199ZM375.425 48.4453V48.4941L375.522 48.6406H376.206L379.673 47.8594V47.7617L378.745 47.5664C376.532 47.8268 375.425 48.1198 375.425 48.4453ZM367.759 60.6035L367.563 60.75V61.0918C367.629 62.1986 367.938 62.8171 368.491 62.9473L368.54 62.8984V62.8496C368.312 61.3522 368.052 60.6035 367.759 60.6035ZM375.327 46.7852V47.0293C377.866 46.7363 379.136 46.541 379.136 46.4434L378.745 46.2969H378.696C377.134 46.2969 376.011 46.4596 375.327 46.7852ZM379.478 44.9297C379.64 45.3854 379.998 45.6133 380.552 45.6133L381.04 45.6621L381.138 45.6133V45.3691C381.138 45.0111 380.796 44.7995 380.112 44.7344C379.689 44.7669 379.478 44.832 379.478 44.9297ZM370.591 65.5352H370.249V65.7305C370.672 66.1536 371.437 66.3652 372.544 66.3652H373.081C372.918 66.1374 372.088 65.8607 370.591 65.5352ZM378.647 67.3418V67.4395C378.647 67.5371 378.892 67.6185 379.38 67.6836C379.933 67.6836 380.21 67.6022 380.21 67.4395V67.3418C380.177 67.2116 380.063 67.0814 379.868 66.9512H379.429C379.071 66.9512 378.81 67.0814 378.647 67.3418ZM387.925 58.0645C387.957 59.041 388.039 59.5618 388.169 59.627H388.267C388.267 59.2689 388.413 58.8783 388.706 58.4551V58.3086L388.169 57.5762H388.071C388.006 57.5762 387.957 57.7389 387.925 58.0645ZM384.702 49.666H384.507C384.702 50.0892 385.174 50.4473 385.923 50.7402H386.118L386.265 50.5938V50.5449C385.711 49.959 385.19 49.666 384.702 49.666ZM383.628 48.1523V48.25C383.726 48.6406 384.181 49.0475 384.995 49.4707H385.142L385.239 49.3242V49.2754C385.076 49.0475 384.539 48.6732 383.628 48.1523ZM380.405 46.541L380.308 46.5898C380.926 47.0781 381.414 47.3223 381.772 47.3223L381.821 47.2246V47.1758C381.3 46.7526 380.828 46.541 380.405 46.541ZM373.911 66.1699V66.3164C373.911 66.5117 374.367 66.6094 375.278 66.6094L375.327 66.5605V66.4629C374.904 66.2676 374.432 66.1699 373.911 66.1699ZM382.896 46.0039L382.749 46.1504C383.107 46.6061 383.465 46.834 383.823 46.834C383.823 46.4759 383.547 46.1992 382.993 46.0039H382.896ZM370.981 51.0332V51.375H371.128C371.551 50.9844 371.763 50.6751 371.763 50.4473V50.3984H371.519C371.323 50.5286 371.144 50.7402 370.981 51.0332ZM382.017 48.7871C382.212 49.1126 382.44 49.2754 382.7 49.2754L382.749 49.1777V49.0801C382.749 48.7871 382.619 48.6406 382.358 48.6406C382.131 48.6732 382.017 48.722 382.017 48.7871ZM386.753 61.6289V61.6777C387.013 61.6777 387.241 61.4173 387.437 60.8965V60.7988H387.29C387.095 60.7988 386.916 61.0755 386.753 61.6289ZM372.007 48.4941C372.3 48.4941 372.576 48.2988 372.837 47.9082V47.7617C372.284 47.9245 372.007 48.1686 372.007 48.4941ZM387.534 60.75H387.778L387.974 60.8965C388.006 60.3757 387.925 60.1478 387.729 60.2129H387.632L387.583 59.8711L387.534 60.75ZM381.284 67.6836H381.333C381.919 67.4883 382.212 67.3255 382.212 67.1953L382.114 67.0977C381.659 67.2604 381.382 67.4557 381.284 67.6836ZM369.565 63.8262L369.37 63.9238V64.0215L369.761 64.4121H369.956C369.956 64.1842 369.826 63.9889 369.565 63.8262ZM372.886 66.8535V66.9023H373.521L373.618 66.8047L373.521 66.6582H373.423C373.097 66.6582 372.918 66.7233 372.886 66.8535ZM388.706 54.5977L388.56 54.7441V54.9395L388.706 55.1348L388.901 54.9395V54.7441L388.755 54.5977H388.706ZM368.052 53.0352C368.215 53.0352 368.361 52.9212 368.491 52.6934V52.5957C368.198 52.5957 368.052 52.7422 368.052 53.0352ZM366.538 58.3086L366.44 58.4551C366.473 58.748 366.522 58.8945 366.587 58.8945L366.685 58.8457V58.6016L366.587 58.3086H366.538ZM379.575 47.0293V47.0781L380.063 46.6875L379.966 46.6387C379.64 46.834 379.51 46.9642 379.575 47.0293ZM369.028 51.375H369.077C369.207 51.3424 369.272 51.2122 369.272 50.9844H369.175C369.077 51.0495 369.028 51.1797 369.028 51.375ZM369.321 57.2344L369.126 57.4297V57.5273H369.272L369.37 57.3809V57.2344H369.321ZM372.202 49.8613H372.007V50.0566H372.104L372.202 49.959V49.8613ZM403.501 43.9043L404.868 44.2949H405.308C407.163 45.2064 408.888 46.2969 410.483 47.5664C412.144 48.9987 412.974 50.0729 412.974 50.7891H412.876C412.616 50.3333 412.355 50.1055 412.095 50.1055H412.046C411.948 50.1055 411.899 50.1706 411.899 50.3008C412.03 50.6589 412.323 51.2773 412.778 52.1562H412.876C412.941 52.1562 413.022 51.9935 413.12 51.668H413.169C413.267 51.7005 413.381 52.1725 413.511 53.084L413.95 54.0605L413.853 54.6953L413.999 56.4531C413.771 57.2669 413.56 58.3411 413.364 59.6758C413.234 60.2943 411.72 62.6055 408.823 66.6094C407.521 67.8464 406.252 68.4648 405.015 68.4648C403.875 68.5951 402.59 68.6602 401.157 68.6602H400.229C399.676 68.6602 398.228 68.1882 395.884 67.2441C392.922 64.6074 391.44 62.5892 391.44 61.1895C391.017 60.3105 390.659 59.4967 390.366 58.748C390.366 58.3249 390.806 56.9251 391.685 54.5488C391.685 53.0514 392.043 52.0098 392.759 51.4238C394.289 48.1361 396.226 46.0039 398.569 45.0273C400.62 44.2786 402.264 43.9043 403.501 43.9043ZM394.712 59.2363V59.5293C395.168 60.4082 395.672 61.3522 396.226 62.3613C396.226 62.6868 396.844 63.1426 398.081 63.7285C398.667 64.4121 399.757 64.9492 401.353 65.3398L402.231 65.4375C403.664 65.1445 404.738 64.8353 405.454 64.5098L407.212 63.0449C409.035 61.0918 409.914 59.4479 409.849 58.1133V57.6738C409.653 57.153 409.556 56.3066 409.556 55.1348C409.556 54.2233 409.621 53.5072 409.751 52.9863C409.751 52.7585 409.116 52.1888 407.847 51.2773C406.935 49.9753 405.991 49.1777 405.015 48.8848H404.429C400.62 49.0475 398.716 49.3568 398.716 49.8125C397.869 50.6589 397.284 51.4889 396.958 52.3027C395.916 53.4095 395.396 54.1419 395.396 54.5C395.103 55.8346 394.875 57.4134 394.712 59.2363ZM396.226 47.4199L396.079 47.6641V47.8594C396.274 47.8594 397.267 47.1758 399.058 45.8086L399.448 45.6621L399.741 45.7109C401.922 45.4831 403.013 45.2715 403.013 45.0762V45.0273L402.231 44.8809C400.018 44.8809 398.016 45.7272 396.226 47.4199ZM400.034 48.4453V48.4941L400.132 48.6406H400.815L404.282 47.8594V47.7617L403.354 47.5664C401.141 47.8268 400.034 48.1198 400.034 48.4453ZM392.368 60.6035L392.173 60.75V61.0918C392.238 62.1986 392.547 62.8171 393.101 62.9473L393.149 62.8984V62.8496C392.922 61.3522 392.661 60.6035 392.368 60.6035ZM399.937 46.7852V47.0293C402.476 46.7363 403.745 46.541 403.745 46.4434L403.354 46.2969H403.306C401.743 46.2969 400.62 46.4596 399.937 46.7852ZM404.087 44.9297C404.25 45.3854 404.608 45.6133 405.161 45.6133L405.649 45.6621L405.747 45.6133V45.3691C405.747 45.0111 405.405 44.7995 404.722 44.7344C404.299 44.7669 404.087 44.832 404.087 44.9297ZM395.2 65.5352H394.858V65.7305C395.282 66.1536 396.047 66.3652 397.153 66.3652H397.69C397.528 66.1374 396.698 65.8607 395.2 65.5352ZM403.257 67.3418V67.4395C403.257 67.5371 403.501 67.6185 403.989 67.6836C404.543 67.6836 404.819 67.6022 404.819 67.4395V67.3418C404.787 67.2116 404.673 67.0814 404.478 66.9512H404.038C403.68 66.9512 403.42 67.0814 403.257 67.3418ZM412.534 58.0645C412.567 59.041 412.648 59.5618 412.778 59.627H412.876C412.876 59.2689 413.022 58.8783 413.315 58.4551V58.3086L412.778 57.5762H412.681C412.616 57.5762 412.567 57.7389 412.534 58.0645ZM409.312 49.666H409.116C409.312 50.0892 409.784 50.4473 410.532 50.7402H410.728L410.874 50.5938V50.5449C410.321 49.959 409.8 49.666 409.312 49.666ZM408.237 48.1523V48.25C408.335 48.6406 408.791 49.0475 409.604 49.4707H409.751L409.849 49.3242V49.2754C409.686 49.0475 409.149 48.6732 408.237 48.1523ZM405.015 46.541L404.917 46.5898C405.535 47.0781 406.024 47.3223 406.382 47.3223L406.431 47.2246V47.1758C405.91 46.7526 405.438 46.541 405.015 46.541ZM398.521 66.1699V66.3164C398.521 66.5117 398.976 66.6094 399.888 66.6094L399.937 66.5605V66.4629C399.513 66.2676 399.041 66.1699 398.521 66.1699ZM407.505 46.0039L407.358 46.1504C407.716 46.6061 408.075 46.834 408.433 46.834C408.433 46.4759 408.156 46.1992 407.603 46.0039H407.505ZM395.591 51.0332V51.375H395.737C396.16 50.9844 396.372 50.6751 396.372 50.4473V50.3984H396.128C395.933 50.5286 395.754 50.7402 395.591 51.0332ZM406.626 48.7871C406.821 49.1126 407.049 49.2754 407.31 49.2754L407.358 49.1777V49.0801C407.358 48.7871 407.228 48.6406 406.968 48.6406C406.74 48.6732 406.626 48.722 406.626 48.7871ZM411.362 61.6289V61.6777C411.623 61.6777 411.851 61.4173 412.046 60.8965V60.7988H411.899C411.704 60.7988 411.525 61.0755 411.362 61.6289ZM396.616 48.4941C396.909 48.4941 397.186 48.2988 397.446 47.9082V47.7617C396.893 47.9245 396.616 48.1686 396.616 48.4941ZM412.144 60.75H412.388L412.583 60.8965C412.616 60.3757 412.534 60.1478 412.339 60.2129H412.241L412.192 59.8711L412.144 60.75ZM405.894 67.6836H405.942C406.528 67.4883 406.821 67.3255 406.821 67.1953L406.724 67.0977C406.268 67.2604 405.991 67.4557 405.894 67.6836ZM394.175 63.8262L393.979 63.9238V64.0215L394.37 64.4121H394.565C394.565 64.1842 394.435 63.9889 394.175 63.8262ZM397.495 66.8535V66.9023H398.13L398.228 66.8047L398.13 66.6582H398.032C397.707 66.6582 397.528 66.7233 397.495 66.8535ZM413.315 54.5977L413.169 54.7441V54.9395L413.315 55.1348L413.511 54.9395V54.7441L413.364 54.5977H413.315ZM392.661 53.0352C392.824 53.0352 392.97 52.9212 393.101 52.6934V52.5957C392.808 52.5957 392.661 52.7422 392.661 53.0352ZM391.147 58.3086L391.05 58.4551C391.082 58.748 391.131 58.8945 391.196 58.8945L391.294 58.8457V58.6016L391.196 58.3086H391.147ZM404.185 47.0293V47.0781L404.673 46.6875L404.575 46.6387C404.25 46.834 404.119 46.9642 404.185 47.0293ZM393.638 51.375H393.687C393.817 51.3424 393.882 51.2122 393.882 50.9844H393.784C393.687 51.0495 393.638 51.1797 393.638 51.375ZM393.931 57.2344L393.735 57.4297V57.5273H393.882L393.979 57.3809V57.2344H393.931ZM396.812 49.8613H396.616V50.0566H396.714L396.812 49.959V49.8613ZM425.962 27.7422C426.678 27.7422 427.264 27.9375 427.72 28.3281C427.329 29.3698 427.069 31.0137 426.938 33.2598L426.499 37.752C426.499 37.9798 427.15 38.0938 428.452 38.0938C432.293 38.0938 434.214 38.2728 434.214 38.6309C434.377 38.6309 434.572 38.7285 434.8 38.9238C434.474 39.347 434.312 39.6562 434.312 39.8516V39.998L434.458 40.9746L433.823 43.123C433.823 43.3509 434.067 43.6764 434.556 44.0996V44.1973C433.774 44.4577 433.14 44.5879 432.651 44.5879C432.131 44.5553 431.87 44.474 431.87 44.3438V44.2461L432.31 44.1973H432.651L432.847 44.002V43.9043L432.651 43.8555L429.38 43.9043L426.694 43.8555C426.532 43.8555 426.353 44.7669 426.157 46.5898H426.108L425.425 45.8086L425.278 46.3457V46.6387C425.311 47.5501 425.425 48.0384 425.62 48.1035C425.75 48.1035 425.864 47.8105 425.962 47.2246V46.8828H426.108L426.157 47.0293L425.815 51.7168C426.206 58.4551 426.548 61.8242 426.841 61.8242C427.004 62.8659 427.41 63.3867 428.062 63.3867C428.42 63.6146 428.859 63.7285 429.38 63.7285H430.259L433.188 63.582C433.254 63.582 433.368 64.4447 433.53 66.1699C433.595 66.6908 433.481 67.0651 433.188 67.293C432.928 67.5534 432.472 67.6836 431.821 67.6836L428.062 67.7812C426.011 67.7812 424.285 67.2116 422.886 66.0723C421.974 65.7467 421.519 64.7702 421.519 63.1426C421.453 62.2637 421.34 59.6595 421.177 55.3301L421.763 48.6895L421.909 45.8086V45.418C421.681 44.0508 421.291 43.3672 420.737 43.3672H419.272H417.563C417.075 43.3672 416.587 43.4811 416.099 43.709C415.773 43.6764 415.366 43.237 414.878 42.3906L415.854 38.0449C415.854 37.9147 417.824 37.8333 421.763 37.8008C421.763 37.3776 421.991 36.8405 422.446 36.1895C422.576 31.1113 422.756 28.5723 422.983 28.5723V28.4258C422.983 28.3607 422.902 28.3281 422.739 28.3281V28.1816C422.739 28.084 423.813 27.9375 425.962 27.7422ZM424.106 29.0605H424.058V29.3535H424.204V29.1582L424.106 29.0605ZM426.206 29.1582L426.011 29.3535V29.4512L426.157 30.5742H426.255C426.646 30.1836 426.841 29.8418 426.841 29.5488V29.3535L426.694 29.1582H426.206ZM424.448 30.9648L424.302 30.8184C424.237 31.1439 424.204 31.5671 424.204 32.0879V32.2832H424.302L424.448 31.4531V30.9648ZM424.595 33.0156H424.497L424.302 37.8496V37.8984L424.448 38.0449H424.546C424.774 38.0449 424.888 37.638 424.888 36.8242V35.7012L424.79 33.3086C424.725 33.1133 424.66 33.0156 424.595 33.0156ZM416.147 38.6309C416.147 38.8587 416.294 38.9727 416.587 38.9727H417.319C418.654 38.9727 419.891 38.9076 421.03 38.7773V38.6797C421.03 38.5169 420.233 38.4355 418.638 38.4355H416.587C416.294 38.4355 416.147 38.5007 416.147 38.6309ZM431.382 38.4355L430.747 38.6797H430.161H429.331V38.8262C430.047 39.0215 430.666 39.1191 431.187 39.1191H432.31C432.375 39.1191 432.407 39.0703 432.407 38.9727C432.342 38.6146 432.163 38.4355 431.87 38.4355H431.382ZM432.749 38.9238L432.603 39.0215V39.1191L432.749 39.168C433.075 39.168 433.254 39.1029 433.286 38.9727V38.9238H432.749ZM416.929 39.5586L416.831 39.6562V39.9492C416.831 40.2747 417.922 40.4375 420.103 40.4375C421.209 40.4375 421.763 40.3561 421.763 40.1934C421.763 39.8027 420.33 39.5911 417.466 39.5586H416.929ZM427.329 39.998L427.183 40.1445V40.1934C427.183 40.3561 427.769 40.4538 428.94 40.4863L429.771 40.4375L430.894 40.6328H431.089C431.317 40.6328 431.431 40.5352 431.431 40.3398H431.382L427.671 39.998H427.329ZM432.603 41.0723L432.407 41.2676V41.3164L432.603 41.4629H432.847C433.14 41.4629 433.319 41.3652 433.384 41.1699L433.237 41.0723H432.603ZM417.368 41.2676L417.173 41.4141C417.173 41.5443 417.254 41.6094 417.417 41.6094L418.638 41.6582L419.956 41.6094L420.005 41.5605V41.4629C419.614 41.3327 418.882 41.2676 417.808 41.2676H417.368ZM421.177 42.1953L417.173 42.0488V42.1465C417.173 42.3743 418.41 42.4883 420.884 42.4883L421.274 42.3906V42.3418L421.177 42.1953ZM428.159 42.3418H427.915V42.4883C427.948 42.5534 428.517 42.7161 429.624 42.9766H429.722V42.8789C429.201 42.5208 428.68 42.3418 428.159 42.3418ZM430.649 42.8301C431.528 43.123 432.31 43.2695 432.993 43.2695L433.188 43.0742V42.7812L433.042 42.6348H431.968C431.089 42.6348 430.649 42.6999 430.649 42.8301ZM423.862 44.5879V44.9785L424.009 45.125C424.139 45.0924 424.204 44.9785 424.204 44.7832V44.5879L424.106 44.2461H424.058C423.927 44.2786 423.862 44.3926 423.862 44.5879ZM425.669 45.4668L425.425 45.2715V45.418L425.62 45.6133H425.669V45.4668ZM424.106 45.5645H424.009L423.96 45.8086V46.0527L424.009 46.3457H424.204V45.9062V45.6621L424.106 45.5645ZM424.204 48.9336H424.058V49.3242L424.204 49.5195H424.302V49.3242L424.204 48.9336ZM421.86 55.1348L422.007 56.502L421.958 58.2109L422.007 58.6992H422.153C422.349 58.6992 422.446 57.9342 422.446 56.4043V55.2812C422.446 53.7839 422.381 53.0352 422.251 53.0352C422.023 53.0352 421.893 53.735 421.86 55.1348ZM425.034 58.9922H424.937L424.888 59.334V59.7246C424.888 59.9525 424.953 60.0827 425.083 60.1152H425.181C425.311 60.0827 425.376 59.9688 425.376 59.7734C425.343 59.2526 425.229 58.9922 425.034 58.9922ZM425.425 61.0918L425.229 61.6289C425.229 62.3776 425.392 62.8496 425.718 63.0449L425.815 62.8496V62.4102C425.783 61.5964 425.653 61.1569 425.425 61.0918ZM423.521 61.4336H423.374V62.166L423.472 62.459H423.521L423.618 62.3613V61.5312L423.521 61.4336ZM424.937 64.5098V64.5586V64.8516C424.969 64.9818 425.083 65.112 425.278 65.2422H425.62V65.1445C425.62 64.7865 425.392 64.5749 424.937 64.5098ZM430.356 65.4863H430.552C431.756 65.291 432.358 65.0794 432.358 64.8516L432.261 64.7539C430.991 65.0794 430.356 65.3236 430.356 65.4863ZM423.716 64.8027H423.618V64.998C423.716 65.8118 424.074 66.2188 424.692 66.2188H425.181L425.278 66.0723V66.0234C425.278 65.9583 424.985 65.8444 424.399 65.6816L423.716 64.8027Z" fill="black"/>
<defs>
<filter id="filter0_d" x="216" y="19" width="84.7447" height="94.0638" filterUnits="userSpaceOnUse" color-interpolation-filters="sRGB">
<feFlood flood-opacity="0" result="BackgroundImageFix"/>
<feColorMatrix in="SourceAlpha" type="matrix" values="0 0 0 0 0 0 0 0 0 0 0 0 0 0 0 0 0 0 127 0" result="hardAlpha"/>
<feOffset dy="4"/>
<feGaussianBlur stdDeviation="2"/>
<feComposite in2="hardAlpha" operator="out"/>
<feColorMatrix type="matrix" values="0 0 0 0 0 0 0 0 0 0 0 0 0 0 0 0 0 0 0.25 0"/>
<feBlend mode="normal" in2="BackgroundImageFix" result="effect1_dropShadow"/>
<feBlend mode="normal" in="SourceGraphic" in2="effect1_dropShadow" result="shape"/>
</filter>
</defs>
</svg>
