<svg width="10" height="19" viewBox="0 0 45 101" fill="none" xmlns="http://www.w3.org/2000/svg">
<path d="M2.70587 4.91177H40.9706V35.0735C40.9706 45.64 32.4047 54.2059 21.8382 54.2059C11.2717 54.2059 2.70587 45.64 2.70587 35.0735V4.91177Z" fill="#FFFAFA" stroke="black"/>
<path d="M40.9706 3.75C40.9706 3.6817 40.9364 3.55187 40.7305 3.35975C40.5251 3.16797 40.1942 2.95926 39.722 2.74602C38.7808 2.32097 37.3874 1.92581 35.6266 1.58947C32.1131 0.918363 27.2379 0.5 21.8382 0.5C16.4385 0.5 11.5633 0.918363 8.04986 1.58947C6.28903 1.92581 4.89567 2.32097 3.95447 2.74602C3.48227 2.95926 3.15136 3.16797 2.94591 3.35975C2.7401 3.55187 2.70587 3.6817 2.70587 3.75C2.70587 3.8183 2.7401 3.94813 2.94591 4.14025C3.15136 4.33203 3.48227 4.54074 3.95447 4.75398C4.89567 5.17903 6.28903 5.57419 8.04986 5.91053C11.5633 6.58164 16.4385 7 21.8382 7C27.2379 7 32.1131 6.58164 35.6266 5.91053C37.3874 5.57419 38.7808 5.17903 39.722 4.75398C40.1942 4.54074 40.5251 4.33203 40.7305 4.14025C40.9364 3.94813 40.9706 3.8183 40.9706 3.75Z" fill="#FFFAFA" stroke="black"/>
<path d="M44.5 96.397C44.5 96.4909 44.4508 96.6494 44.2063 96.872C43.963 97.0935 43.5756 97.3307 43.0303 97.5709C41.9432 98.0496 40.3391 98.4927 38.3183 98.8691C34.285 99.6204 28.6922 100.088 22.5 100.088C16.3078 100.088 10.715 99.6204 6.68166 98.8691C4.66091 98.4927 3.05677 98.0496 1.96969 97.5709C1.42437 97.3307 1.03704 97.0935 0.793701 96.872C0.549196 96.6494 0.5 96.4909 0.5 96.397C0.5 96.3032 0.549196 96.1447 0.793701 95.9221C1.03704 95.7006 1.42437 95.4634 1.96969 95.2232C3.05677 94.7445 4.66091 94.3014 6.68166 93.925C10.715 93.1737 16.3078 92.7059 22.5 92.7059C28.6922 92.7059 34.285 93.1737 38.3183 93.925C40.3391 94.3014 41.9432 94.7445 43.0303 95.2232C43.5756 95.4634 43.963 95.7006 44.2063 95.9221C44.4508 96.1447 44.5 96.3032 44.5 96.397Z" fill="#FFFAFA" stroke="black"/>
<line x1="23.5588" y1="54.7059" x2="23.5588" y2="95.7353" stroke="#C4C4C4" stroke-width="3"/>
<path d="M4.5 26.5H39.5V35C39.5 44.665 31.665 52.5 22 52.5C12.335 52.5 4.5 44.665 4.5 35V26.5Z" fill="#961313" stroke="black"/>
</svg>
