<svg width="30" height="40" viewBox="0 0 44 53" fill="none" xmlns="http://www.w3.org/2000/svg">
<g filter="url(#filter0_d)">
<path d="M39.0198 39.7802C39.0198 42.2701 31.1803 44.2885 21.5099 44.2885C11.8394 44.2885 4 42.2701 4 39.7802C4 37.2904 11.8394 35.2719 21.5099 35.2719C31.1803 35.2719 39.0198 37.2904 39.0198 39.7802Z" fill="#FFFAFA"/>
<path d="M38.5198 39.7802C38.5198 40.124 38.2393 40.5872 37.3838 41.108C36.5577 41.6108 35.329 42.0816 33.7666 42.4839C30.6493 43.2865 26.3156 43.7885 21.5099 43.7885C16.7041 43.7885 12.3705 43.2865 9.2532 42.4839C7.69077 42.0816 6.4621 41.6108 5.636 41.108C4.78046 40.5872 4.5 40.124 4.5 39.7802C4.5 39.4365 4.78046 38.9733 5.636 38.4525C6.4621 37.9496 7.69077 37.4789 9.2532 37.0766C12.3705 36.274 16.7041 35.7719 21.5099 35.7719C26.3156 35.7719 30.6493 36.274 33.7666 37.0766C35.329 37.4789 36.5577 37.9496 37.3838 38.4525C38.2393 38.9733 38.5198 39.4365 38.5198 39.7802Z" stroke="black"/>
</g>
<path d="M27.6072 23.9166L33.0049 22.2907V27.8222C33.0049 34.1707 27.8584 39.3172 21.5099 39.3172C15.1614 39.3172 10.0149 34.1707 10.0149 27.8222V22.28L15.7754 23.9187L15.8425 23.9378H15.9122H22.1318L27.4629 23.9378H27.5366L27.6072 23.9166Z" fill="#FFFAFA" stroke="black"/>
<path d="M32.9836 20.7178C32.9836 21.99 31.8719 23.2937 29.7198 24.3088C27.6066 25.3055 24.652 25.9357 21.3614 25.9357C18.0708 25.9357 15.1163 25.3055 13.003 24.3088C10.8509 23.2937 9.73918 21.99 9.73918 20.7178C9.73918 19.4457 10.8509 18.142 13.003 17.1269C15.1163 16.1302 18.0708 15.5 21.3614 15.5C24.652 15.5 27.6066 16.1302 29.7198 17.1269C31.8719 18.142 32.9836 19.4457 32.9836 20.7178Z" fill="#FFFAFA" stroke="black"/>
<path d="M32.1685 22.8207C32.1685 24.5818 27.3443 26.2294 21.3932 26.2294C15.4422 26.2294 10.6179 24.5818 10.6179 22.8207C10.6179 21.0595 16.347 19.4119 22.298 19.4119C28.2491 19.4119 32.1685 21.0595 32.1685 22.8207Z" fill="#5A1B1B"/>
<path d="M36.5197 26.4317L33.0234 24.6013L31.8898 33.6895L35.7755 32.5315C36.1259 32.427 36.4571 32.2667 36.7563 32.0567L36.8794 31.9703C38.3836 30.9145 38.7137 28.8225 37.6077 27.3548C37.3179 26.9703 36.9463 26.655 36.5197 26.4317Z" fill="#FFFAFA" stroke="black"/>
<path d="M18.6219 1C13.4585 1.70078 17.0173 4.55451 19.9657 5.06667C22.9141 5.57883 18.6219 9 18.6219 9" stroke="black"/>
<path d="M24.6219 2C19.4585 2.70078 23.0173 5.55451 25.9657 6.06667C28.9141 6.57883 24.6219 10 24.6219 10" stroke="black"/>
<defs>
<filter id="filter0_d" x="0" y="35.2719" width="43.0198" height="17.0166" filterUnits="userSpaceOnUse" color-interpolation-filters="sRGB">
<feFlood flood-opacity="0" result="BackgroundImageFix"/>
<feColorMatrix in="SourceAlpha" type="matrix" values="0 0 0 0 0 0 0 0 0 0 0 0 0 0 0 0 0 0 127 0" result="hardAlpha"/>
<feOffset dy="4"/>
<feGaussianBlur stdDeviation="2"/>
<feComposite in2="hardAlpha" operator="out"/>
<feColorMatrix type="matrix" values="0 0 0 0 0 0 0 0 0 0 0 0 0 0 0 0 0 0 0.25 0"/>
<feBlend mode="normal" in2="BackgroundImageFix" result="effect1_dropShadow"/>
<feBlend mode="normal" in="SourceGraphic" in2="effect1_dropShadow" result="shape"/>
</filter>
</defs>
</svg>
